<?xml version="1.0" encoding="UTF-8" standalone="no"?>
<!-- Created with Inkscape (http://www.inkscape.org/) -->

<svg
   version="1.1"
   id="svg69"
   width="769.14001"
   height="769.13342"
   viewBox="0 0 769.14001 769.13342"
   sodipodi:docname="Food_allergies.eps"
   xmlns:inkscape="http://www.inkscape.org/namespaces/inkscape"
   xmlns:sodipodi="http://sodipodi.sourceforge.net/DTD/sodipodi-0.dtd"
   xmlns="http://www.w3.org/2000/svg"
   xmlns:svg="http://www.w3.org/2000/svg">
  <defs
     id="defs73" />
  <sodipodi:namedview
     id="namedview71"
     pagecolor="#ffffff"
     bordercolor="#000000"
     borderopacity="0.25"
     inkscape:showpageshadow="2"
     inkscape:pageopacity="0.0"
     inkscape:pagecheckerboard="0"
     inkscape:deskcolor="#d1d1d1"
     showgrid="false" />
  <g
     id="g77"
     inkscape:groupmode="layer"
     inkscape:label="Page 1"
     transform="matrix(1.3333333,0,0,-1.3333333,-726.40918,3883.5374)">
    <g
       id="g79"
       transform="matrix(0.1,0,0,0.1,16.221913,-82.986886)">
      <path
         d="M 39690,5 H 5 V 39690 H 39690 V 5"
         style="fill:#ffffff;fill-opacity:1;fill-rule:nonzero;stroke:none"
         id="path81"
         sodipodi:insensitive="true" />
      <path
         d="M 39690,5 H 5 v 39685 h 39685 z"
         style="fill:none;stroke:#171717;stroke-width:10;stroke-linecap:butt;stroke-linejoin:miter;stroke-miterlimit:10;stroke-dasharray:none;stroke-opacity:1"
         id="path83" />
      <path
         d="m 11054.4,27072.2 c 0,-1593 -1291.32,-2884.3 -2884.25,-2884.3 -1592.97,0 -2884.3,1291.3 -2884.3,2884.3 0,1592.9 1291.33,2884.2 2884.3,2884.2 1592.93,0 2884.25,-1291.3 2884.25,-2884.2"
         style="fill:#f8b30a;fill-opacity:1;fill-rule:nonzero;stroke:none"
         id="path85" />
      <path
         d="m 8170.15,26059.1 c 821.83,0 1570.64,-95.9 2134.05,-253.2 220.5,370.7 347.2,803.7 347.2,1266.3 0,1370.3 -1110.9,2481.2 -2481.25,2481.2 -1370.41,0 -2481.29,-1110.9 -2481.29,-2481.2 0,-462.6 126.74,-895.6 347.17,-1266.3 563.45,157.3 1312.26,253.2 2134.12,253.2"
         style="fill:#ffffff;fill-opacity:1;fill-rule:nonzero;stroke:none"
         id="path87" />
      <path
         d="m 6402.67,25174.5 56.77,68 c 39.31,-32.4 80.49,-53 130.4,-53 39.31,0 63.02,15.6 63.02,41.1 v 1.3 c 0,24.3 -14.97,36.8 -87.97,55.5 -87.98,22.5 -144.75,46.8 -144.75,133.5 v 1.3 c 0,79.2 63.63,131.6 152.86,131.6 63.64,0 117.92,-19.9 162.22,-55.5 l -49.92,-72.4 c -38.68,26.9 -76.74,43.1 -113.55,43.1 -36.81,0 -56.15,-16.9 -56.15,-38.1 v -1.2 c 0,-28.7 18.72,-38.1 94.21,-57.4 88.6,-23.1 138.51,-54.9 138.51,-131.1 v -1.2 c 0,-86.7 -66.13,-135.4 -160.35,-135.4 -66.13,0 -132.9,23.1 -185.3,69.9"
         style="fill:#ffffff;fill-opacity:1;fill-rule:nonzero;stroke:none"
         id="path89" />
      <path
         d="m 6825.11,25298 v 249.6 h 96.08 v -247.1 c 0,-71.1 35.57,-107.9 94.22,-107.9 58.65,0 94.21,35.5 94.21,104.8 v 250.2 h 96.09 v -246.4 c 0,-132.3 -74.25,-197.2 -191.55,-197.2 -117.3,0 -189.05,65.5 -189.05,194"
         style="fill:#ffffff;fill-opacity:1;fill-rule:nonzero;stroke:none"
         id="path91" />
      <path
         d="m 7303.71,25547.6 h 96.09 v -349.4 h 217.75 v -87.4 h -313.84 v 436.8"
         style="fill:#ffffff;fill-opacity:1;fill-rule:nonzero;stroke:none"
         id="path93" />
      <path
         d="m 7862.17,25327.4 c 48.04,0 76.12,28.7 76.12,66.1 v 1.2 c 0,43.1 -29.95,66.2 -77.99,66.2 h -74.25 v -133.5 z m -172.21,220.2 h 178.45 c 104.19,0 167.21,-61.8 167.21,-151 v -1.2 c 0,-101.1 -78.61,-153.5 -176.57,-153.5 h -73 v -131.1 h -96.09 v 436.8"
         style="fill:#ffffff;fill-opacity:1;fill-rule:nonzero;stroke:none"
         id="path95" />
      <path
         d="m 8106.8,25547.6 h 96.08 v -172.8 h 177.2 v 172.8 h 96.08 v -436.8 h -96.08 v 175.4 h -177.2 v -175.4 h -96.08 v 436.8"
         style="fill:#ffffff;fill-opacity:1;fill-rule:nonzero;stroke:none"
         id="path97" />
      <path
         d="m 8585.4,25547.6 h 96.08 v -436.8 h -96.08 v 436.8"
         style="fill:#ffffff;fill-opacity:1;fill-rule:nonzero;stroke:none"
         id="path99" />
      <path
         d="M 8892.39,25459 H 8759.5 v 88.6 h 361.88 v -88.6 h -132.9 v -348.2 h -96.09 v 348.2"
         style="fill:#ffffff;fill-opacity:1;fill-rule:nonzero;stroke:none"
         id="path101" />
      <path
         d="m 9195.04,25547.6 h 329.44 v -85.5 H 9290.5 v -88.6 h 205.9 v -85.5 h -205.9 v -91.7 h 237.1 v -85.5 h -332.56 v 436.8"
         style="fill:#ffffff;fill-opacity:1;fill-rule:nonzero;stroke:none"
         id="path103" />
      <path
         d="m 9583.17,25174.5 56.78,68 c 39.31,-32.4 80.49,-53 130.4,-53 39.31,0 63.02,15.6 63.02,41.1 v 1.3 c 0,24.3 -14.98,36.8 -87.97,55.5 -87.98,22.5 -144.76,46.8 -144.76,133.5 v 1.3 c 0,79.2 63.64,131.6 152.87,131.6 63.64,0 117.92,-19.9 162.22,-55.5 l -49.92,-72.4 c -38.68,26.9 -76.74,43.1 -113.55,43.1 -36.82,0 -56.16,-16.9 -56.16,-38.1 v -1.2 c 0,-28.7 18.72,-38.1 94.22,-57.4 88.6,-23.1 138.51,-54.9 138.51,-131.1 v -1.2 c 0,-86.7 -66.13,-135.4 -160.35,-135.4 -66.14,0 -132.9,23.1 -185.31,69.9"
         style="fill:#ffffff;fill-opacity:1;fill-rule:nonzero;stroke:none"
         id="path105" />
      <path
         d="m 9345.91,27043.6 c -133.93,1.3 -251.21,-71.9 -312.68,-180.8 l -482.91,282.8 c 18.48,45.6 29.2,95.2 29.73,147.4 1.91,200.7 -143.26,368.1 -334.92,400.9 l 4.78,495.8 c 165.43,28.8 292.05,172 293.73,345.9 1.9,196 -155.47,356.5 -351.46,358.4 -196.02,1.9 -356.45,-155.5 -358.34,-351.5 -1.68,-174 122.15,-319.6 287.01,-351.5 l -4.81,-495.8 c -192.28,-29.1 -340.66,-193.7 -342.61,-394.4 -0.31,-31.7 3.42,-62.5 10.08,-92.2 l -513.95,-250.4 c -63.71,65.7 -152.56,106.9 -251.29,107.9 -195.99,1.9 -356.4,-155.5 -358.32,-351.5 -1.89,-196 155.47,-356.4 351.47,-358.3 196.01,-1.9 356.44,155.5 358.36,351.5 0.46,50.3 -9.71,98.3 -28.23,141.9 l 490.28,238.9 c 69.96,-115.6 195.99,-193.6 340.99,-195 124.24,-1.2 235.76,54 310.63,141.6 l 507.85,-297.4 c -2.09,-15 -3.58,-30.2 -3.71,-45.7 -1.9,-196 155.45,-356.4 351.46,-358.3 196,-1.9 356.45,155.4 358.34,351.4 1.9,196.1 -155.47,356.5 -351.48,358.4"
         style="fill:#f8b30a;fill-opacity:1;fill-rule:nonzero;stroke:none"
         id="path107" />
      <path
         d="m 18839.3,27072.2 c 0,-1593 -1291.3,-2884.3 -2884.3,-2884.3 -1592.9,0 -2884.2,1291.3 -2884.2,2884.3 0,1592.9 1291.3,2884.2 2884.2,2884.2 1593,0 2884.3,-1291.3 2884.3,-2884.2"
         style="fill:#f8b30a;fill-opacity:1;fill-rule:nonzero;stroke:none"
         id="path109"
         inkscape:export-filename="../../Documents/GitHub/pucciaria1.0/img/allergeni/mais.svg"
         inkscape:export-xdpi="11.982214"
         inkscape:export-ydpi="11.982214" />
      <path
         d="m 15963,26059 c 818.5,0 1564.5,-95.2 2127.2,-251.3 219.8,370.3 346.1,802.6 346.1,1264.5 0,1370.3 -1110.9,2481.3 -2481.3,2481.3 -1370.3,0 -2481.2,-1111 -2481.2,-2481.3 0,-463.5 127.2,-897.2 348.4,-1268.3 564.2,158.4 1315.7,255.1 2140.8,255.1"
         style="fill:#ffffff;fill-opacity:1;fill-rule:nonzero;stroke:none"
         id="path111" />
      <path
         d="m 15026.8,25328 v 1.2 c 0,124.2 93.6,225.9 227.8,225.9 82.3,0 131.6,-27.5 172.2,-67.4 l -61.2,-70.5 c -33.7,30.6 -68,49.3 -111.6,49.3 -73.7,0 -126.7,-61.1 -126.7,-136 v -1.3 c 0,-74.8 51.8,-137.2 126.7,-137.2 49.9,0 80.4,19.9 114.8,51.1 l 61.1,-61.7 c -44.9,-48.1 -94.8,-78 -179.1,-78 -128.5,0 -224,99.2 -224,224.6"
         style="fill:#ffffff;fill-opacity:1;fill-rule:nonzero;stroke:none"
         id="path113" />
      <path
         d="m 15838.6,25328 v 1.2 c 0,74.9 -54.9,137.3 -132.2,137.3 -77.4,0 -131.1,-61.1 -131.1,-136 v -1.3 c 0,-74.8 54.9,-137.2 132.3,-137.2 77.4,0 131,61.1 131,136 z m -363.7,0 v 1.2 c 0,124.2 97.9,225.9 232.7,225.9 134.8,0 231.5,-100.5 231.5,-224.6 v -1.3 c 0,-124.1 -98,-225.8 -232.7,-225.8 -134.8,0 -231.5,100.4 -231.5,224.6"
         style="fill:#ffffff;fill-opacity:1;fill-rule:nonzero;stroke:none"
         id="path115" />
      <path
         d="m 16218,25335.5 c 46.8,0 73.7,24.9 73.7,61.7 v 1.3 c 0,41.2 -28.8,62.4 -75.5,62.4 h -95.5 v -125.4 z m -193.4,212.1 h 199.7 c 55.5,0 98.6,-15.6 127.3,-44.3 24.3,-24.3 37.4,-58.6 37.4,-99.8 v -1.3 c 0,-70.5 -38.1,-114.8 -93.6,-135.4 l 106.7,-155.9 h -112.3 l -93.6,139.7 h -75.5 v -139.7 h -96.1 v 436.7"
         style="fill:#ffffff;fill-opacity:1;fill-rule:nonzero;stroke:none"
         id="path117" />
      <path
         d="m 16475.8,25547.6 h 88.6 l 204.6,-268.9 v 268.9 h 94.8 v -436.7 h -81.7 l -211.5,277.6 v -277.6 h -94.8 v 436.7"
         style="fill:#ffffff;fill-opacity:1;fill-rule:nonzero;stroke:none"
         id="path119" />
      <path
         d="m 15621.8,28229.1 c -14.4,37.6 -18.8,75.4 24.1,108.4 20.5,15.7 31.5,43.6 47.9,65 42.2,54.9 97.6,80.9 166.4,66.9 58.2,-11.9 125.6,-88.8 131.4,-148.7 4.6,-47.2 -3.6,-89.4 -53.2,-114.1 -29.4,-14.7 -56.8,-34.4 -82.6,-55 -103.9,-82.6 -193.1,-55.1 -234,77.5"
         style="fill:#f8b30a;fill-opacity:1;fill-rule:evenodd;stroke:none"
         id="path121" />
      <path
         d="m 16133.6,27769.3 c 30.2,-103.1 1.7,-158.7 -99.3,-193 -65,-22.2 -117.9,1.6 -147.3,64.9 -11.4,24.6 -25.8,47.8 -37.4,72.3 -32.3,68.1 -12.6,116.6 59,143.6 19.7,7.4 40.7,12.1 61.5,15.7 98.6,17 135.1,-6.5 163.5,-103.5"
         style="fill:#f8b30a;fill-opacity:1;fill-rule:evenodd;stroke:none"
         id="path123" />
      <path
         d="m 15988.7,27205.2 c -116.8,-30.3 -166.9,0 -196.1,118.5 -17.4,70.3 22.8,145.1 87.8,163.5 93,26.3 191.1,-28.6 212.3,-118.8 18,-76.2 -24.3,-142.6 -104,-163.2"
         style="fill:#f8b30a;fill-opacity:1;fill-rule:evenodd;stroke:none"
         id="path125" />
      <path
         d="m 15683.8,27769.1 c -79.7,-22.7 -144.8,21.5 -171,116.2 -19.7,71.2 32,143.3 122.2,170.5 64.6,19.5 138.8,-27.4 157.6,-99.7 23.5,-89.8 -18,-161 -108.8,-187"
         style="fill:#f8b30a;fill-opacity:1;fill-rule:evenodd;stroke:none"
         id="path127" />
      <path
         d="m 16149,28087.6 c 24,-94.4 -18.2,-153 -113.9,-158.5 -29.9,-1.7 -60.2,-2 -89.5,-7.3 -55.5,-10 -84.6,24.3 -108.3,63.5 -25.2,41.7 -1.3,76.8 28.6,102.9 36,31.5 75,61 116.8,83.7 65.4,35.4 146.9,-8.2 166.3,-84.3"
         style="fill:#f8b30a;fill-opacity:1;fill-rule:evenodd;stroke:none"
         id="path129" />
      <path
         d="m 16292.3,27926.6 c 96.7,12.1 149.6,-37 143.1,-132.6 -2,-29.9 -5.5,-60 -3.9,-89.8 3.1,-56.3 -34.6,-80.9 -76.4,-99.5 -44.6,-19.8 -76.4,8.3 -98.6,41.2 -26.7,39.6 -51.2,81.9 -68.5,126.3 -27,69.3 26.4,144.6 104.3,154.4"
         style="fill:#f8b30a;fill-opacity:1;fill-rule:evenodd;stroke:none"
         id="path131" />
      <path
         d="m 16039.7,28932.9 c 81.7,26.3 160.7,-27.9 162.2,-115.3 0.3,-20.5 -14.1,-44.5 -28.4,-61.2 -21.4,-25.1 -50.4,-43.5 -73,-67.6 -30.1,-31.9 -59.3,-28.1 -85.7,0.4 -16.1,17.2 -25.6,40.5 -38.5,60.7 -66.1,103.3 -51.3,146.2 63.4,183"
         style="fill:#f8b30a;fill-opacity:1;fill-rule:evenodd;stroke:none"
         id="path133" />
      <path
         d="m 15683.4,27698.2 c 81.6,26.2 160.7,-28 162.1,-115.3 0.4,-20.6 -14,-44.6 -28.3,-61.3 -21.4,-25.1 -50.4,-43.5 -73.1,-67.6 -30,-31.9 -59.2,-28 -85.7,0.4 -16,17.2 -25.5,40.5 -38.4,60.7 -66.1,103.4 -51.3,146.2 63.4,183.1"
         style="fill:#f8b30a;fill-opacity:1;fill-rule:evenodd;stroke:none"
         id="path135" />
      <path
         d="m 15791.4,28775.5 c 65.2,19.8 96.8,4.8 137.8,-65 27.3,-46.6 24.3,-66.3 -30.4,-114.6 -28.5,-25.2 -61.4,-48.5 -96.5,-62.1 -42.7,-16.6 -82.9,-1.3 -111.7,36.2 -28.5,37.2 -31.3,74.4 -6.3,116.6 25.7,43.5 57.1,76.5 107.1,88.9"
         style="fill:#f8b30a;fill-opacity:1;fill-rule:evenodd;stroke:none"
         id="path137" />
      <path
         d="m 16116.1,27422.9 c -23.4,64 -10.3,96.4 57.2,141.2 45,29.9 64.9,28 116.1,-23.9 26.7,-27 51.9,-58.6 67.4,-92.9 19,-41.6 5.9,-82.7 -29.9,-113.5 -35.6,-30.6 -72.5,-35.5 -116.1,-12.8 -44.8,23.2 -79.5,52.7 -94.7,101.9"
         style="fill:#f8b30a;fill-opacity:1;fill-rule:evenodd;stroke:none"
         id="path139" />
      <path
         d="m 15656.9,28521.2 c 12.1,-59.3 -1.3,-103.8 -38.1,-141.2 -33.6,-34.1 -119.2,-52.6 -151.8,-25.5 -25.1,20.8 -47.6,56.9 -51.5,88.6 -10.1,83.9 84.2,167.1 166,145.5 29,-7.6 50.4,-44.1 75.4,-67.4"
         style="fill:#f8b30a;fill-opacity:1;fill-rule:evenodd;stroke:none"
         id="path141" />
      <path
         d="m 15707.3,28810.6 c -24.9,52.8 -103.6,81.7 -56.5,157.2 36.2,58 109.6,90.1 162.2,73.9 44.2,-13.6 78.7,-57.1 76,-100.5 -3.4,-56.4 -36.5,-111.9 -181.7,-130.6"
         style="fill:#f8b30a;fill-opacity:1;fill-rule:evenodd;stroke:none"
         id="path143" />
      <path
         d="m 16223.9,28037.4 c 5,53.4 8.6,92.1 12.2,130.2 126.8,33.4 219,-41.8 205.8,-165.7 -5.7,-53.9 -37.6,-71.4 -85.4,-44.6 -44.7,25.1 -87.7,52.8 -132.6,80.1"
         style="fill:#f8b30a;fill-opacity:1;fill-rule:evenodd;stroke:none"
         id="path145" />
      <path
         d="m 15585.7,28177.3 c 15.8,-50.1 -26.6,-123.7 -82.6,-143.3 -45.6,-15.9 -106.7,18.7 -120.4,68.5 -13,47.5 31,130.1 78.6,147.4 51.2,18.7 105.6,-13.1 124.4,-72.6"
         style="fill:#f8b30a;fill-opacity:1;fill-rule:evenodd;stroke:none"
         id="path147" />
      <path
         d="m 16076.3,27138.2 c -9.5,-73.2 -15.9,-141.9 -29.1,-209.3 -3.7,-18.6 -25,-41.2 -43.4,-47.9 -28.5,-10.4 -40.3,15.6 -49.1,39.6 -8.2,22.5 -17.2,45.1 -28.3,66.3 -22.1,42 -37.1,81.9 0.4,124.5 35.1,39.7 61.5,46.8 149.5,26.8"
         style="fill:#f8b30a;fill-opacity:1;fill-rule:evenodd;stroke:none"
         id="path149" />
      <path
         d="m 16039.5,28229.3 c -2,35.7 -4.3,68.4 -5.5,101.1 -1.6,43.2 25.4,67 61.1,80.8 37.9,14.6 71,4.7 96.6,-28.5 30.4,-39.4 34.2,-84.3 22.5,-129.3 -11.9,-46.3 -50,-63.5 -97.7,-49.4 -26,7.7 -51.4,16.9 -77,25.3"
         style="fill:#f8b30a;fill-opacity:1;fill-rule:evenodd;stroke:none"
         id="path151" />
      <path
         d="m 16189.8,28458.8 c -19.4,62.1 -36,115.1 -54.9,175.7 14.7,12.9 33.7,30.8 53.9,47.2 46.2,37.7 72,37.6 107.7,1 44.4,-45.5 50.3,-97.8 10,-134.5 -35.3,-32.2 -75.9,-58.5 -116.7,-89.4"
         style="fill:#f8b30a;fill-opacity:1;fill-rule:evenodd;stroke:none"
         id="path153" />
      <path
         d="m 15999.4,28417.3 c -17.6,46.2 -94.8,54.7 -68.4,123.3 15.7,40.6 86.9,73.9 129,64.2 61.1,-14.2 64.3,-62.7 67.9,-116.4 -41.4,-22.9 -82.2,-45.4 -128.5,-71.1"
         style="fill:#f8b30a;fill-opacity:1;fill-rule:evenodd;stroke:none"
         id="path155" />
      <path
         d="m 15860.8,29100.9 c 39.8,46.2 85.3,56.9 137.9,35.1 34.8,-14.5 59.4,-38.6 61.9,-79.8 4.4,-72.2 -54.1,-83.7 -102.4,-110.8 -32.1,51.2 -62.6,99.9 -97.4,155.5"
         style="fill:#f8b30a;fill-opacity:1;fill-rule:evenodd;stroke:none"
         id="path157" />
      <path
         d="m 15512.3,28660.6 c -19.1,78.8 -4.8,133.2 48.7,161.6 20.3,10.7 57.2,13.9 73.3,2.3 16.4,-11.9 26,-48 21.9,-70.4 -13,-69.6 -59,-97.8 -143.9,-93.5"
         style="fill:#f8b30a;fill-opacity:1;fill-rule:evenodd;stroke:none"
         id="path159" />
      <path
         d="m 16235.5,28428.6 c 34,27 62.8,53.2 102.2,26.7 36.7,-24.6 49.8,-64.5 41.3,-103.7 -10.5,-48.6 -45.6,-76.7 -96.6,-73.4 -15.5,49.8 -30.5,97.6 -46.9,150.4"
         style="fill:#f8b30a;fill-opacity:1;fill-rule:evenodd;stroke:none"
         id="path161" />
      <path
         d="m 15486.7,27718.7 c -39.6,-17.8 -73.9,-36.2 -105.7,-1 -29.6,32.9 -32.5,74.8 -14.7,110.7 22.1,44.5 62.9,63.3 111.6,47.7 2.9,-52.1 5.7,-102.2 8.8,-157.4"
         style="fill:#f8b30a;fill-opacity:1;fill-rule:evenodd;stroke:none"
         id="path163" />
      <path
         d="m 16022.6,26734.1 c -11.4,36.6 -19,60.9 -28,89.6 41.2,-21.2 41.2,-21.2 28,-89.6"
         style="fill:#2f3031;fill-opacity:1;fill-rule:evenodd;stroke:none"
         id="path165" />
      <path
         d="m 16511.3,27514.6 c -452.3,-306.1 -530.7,-518 -568.5,-838.2 -37.8,320.2 -154.8,720.4 -607.1,1026.4 0,0 -175.8,-844.1 496.4,-1227.5 -1.6,-7.7 -2.5,-15.7 -2.5,-23.8 l 0.2,-42.8 c 0.1,-64 52.2,-115.7 116.2,-115.5 63.9,0.2 115.7,52.1 115.5,116.1 l -0.1,42.8 c 0,8.8 -1.2,17.4 -3.1,25.6 587.4,335.4 453,1036.9 453,1036.9"
         style="fill:#f8b30a;fill-opacity:1;fill-rule:nonzero;stroke:none"
         id="path167" />
      <path
         d="m 34409.2,27098.2 c 0,-1593 -1291.4,-2884.3 -2884.3,-2884.3 -1593,0 -2884.3,1291.3 -2884.3,2884.3 0,1592.9 1291.3,2884.2 2884.3,2884.2 1592.9,0 2884.3,-1291.3 2884.3,-2884.2"
         style="fill:#f8b30a;fill-opacity:1;fill-rule:nonzero;stroke:none"
         id="path169"
         inkscape:export-filename="../../Documents/GitHub/pucciaria1.0/img/allergeni/vegan.svg.svg"
         inkscape:export-xdpi="11.982214"
         inkscape:export-ydpi="11.982214" />
      <path
         d="m 31524.9,29579.5 c -1370.4,0 -2481.3,-1111 -2481.3,-2481.3 0,-465.2 128.1,-900.5 350.9,-1272.6 h 49 c 559.6,152 1295.5,244.4 2101.7,244.4 806.2,0 1542,-92.4 2101.6,-244.4 h 8.5 c 222.7,372.1 350.8,807.4 350.8,1272.6 0,1370.3 -1110.9,2481.3 -2481.2,2481.3"
         style="fill:#ffffff;fill-opacity:1;fill-rule:nonzero;stroke:none"
         id="path171" />
      <path
         d="m 30359.2,25521.6 h 106.1 l 114.2,-307.6 114.2,307.6 h 103.5 l -176.5,-439.9 h -84.9 l -176.6,439.9"
         style="fill:#ffffff;fill-opacity:1;fill-rule:nonzero;stroke:none"
         id="path173" />
      <path
         d="m 30864.7,25521.6 h 329.4 v -85.5 h -234 v -88.6 h 205.9 v -85.4 h -205.9 v -91.8 h 237.1 v -85.4 h -332.5 v 436.7"
         style="fill:#ffffff;fill-opacity:1;fill-rule:nonzero;stroke:none"
         id="path175" />
      <path
         d="m 31263.4,25302 v 1.2 c 0,124.2 96.7,225.9 229,225.9 78.6,0 126,-21.2 171.6,-59.9 l -60.5,-73 c -33.7,28.1 -63.7,44.3 -114.2,44.3 -69.9,0 -125.4,-61.8 -125.4,-136 v -1.3 c 0,-79.8 54.9,-138.5 132.2,-138.5 35,0 66.2,8.8 90.5,26.2 v 62.4 h -96.7 v 83 h 189.7 v -189.7 c -45,-38 -106.7,-69.2 -186.6,-69.2 -136,0 -229.6,95.4 -229.6,224.6"
         style="fill:#ffffff;fill-opacity:1;fill-rule:nonzero;stroke:none"
         id="path177" />
      <path
         d="m 32022.8,25267.7 -58,141.6 -58.1,-141.6 z m -101.1,257 h 88.6 l 187.2,-439.8 H 32097 l -39.9,97.9 h -184.7 l -39.9,-97.9 h -98 l 187.2,439.8"
         style="fill:#ffffff;fill-opacity:1;fill-rule:nonzero;stroke:none"
         id="path179" />
      <path
         d="m 32264.9,25521.6 h 88.6 l 204.7,-268.9 v 268.9 h 94.8 v -436.7 h -81.7 l -211.5,277.6 v -277.6 h -94.9 v 436.7"
         style="fill:#ffffff;fill-opacity:1;fill-rule:nonzero;stroke:none"
         id="path181" />
      <path
         d="m 31407.6,26399.1 c 71.7,391.1 147.5,1813.6 -1345.1,2256.9 l 1345.1,-2256.9"
         style="fill:#f8b30a;fill-opacity:1;fill-rule:nonzero;stroke:none"
         id="path183" />
      <path
         d="m 30052.4,28659.1 c -0.6,0.1 -1.3,0.3 -1.9,0.5 0,0 -570,-1994.2 1278.3,-2351.6 l -1276.4,2351.1"
         style="fill:#f8b30a;fill-opacity:1;fill-rule:nonzero;stroke:none"
         id="path185" />
      <path
         d="m 31504.1,26501.2 c -56.2,410.8 -67.5,1895.6 1508,2286.3 l -1508,-2286.3"
         style="fill:#f8b30a;fill-opacity:1;fill-rule:nonzero;stroke:none"
         id="path187" />
      <path
         d="m 33022.7,28790.2 c 0.7,0.1 1.3,0.3 2,0.5 0,0 498.7,-2103.8 -1443,-2388.1 l 1441,2387.6"
         style="fill:#f8b30a;fill-opacity:1;fill-rule:nonzero;stroke:none"
         id="path189" />
      <path
         d="m 26624.2,27072.2 c 0,-1593 -1291.3,-2884.3 -2884.2,-2884.3 -1593,0 -2884.3,1291.3 -2884.3,2884.3 0,1592.9 1291.3,2884.3 2884.3,2884.3 1592.9,0 2884.2,-1291.4 2884.2,-2884.3"
         style="fill:#f8b30a;fill-opacity:1;fill-rule:nonzero;stroke:none"
         id="path191"
         inkscape:export-filename="../../Documents/GitHub/pucciaria1.0/img/allergeni/pesce.svg"
         inkscape:export-xdpi="11.982214"
         inkscape:export-ydpi="11.982214" />
      <path
         d="m 23740,26066.8 c 823.7,0 1574,-96.4 2137.9,-254.3 218,369.2 343.3,799.8 343.3,1259.7 0,1370.3 -1110.9,2481.3 -2481.2,2481.3 -1370.4,0 -2481.3,-1111 -2481.3,-2481.3 0,-459.9 125.3,-890.5 343.3,-1259.7 563.9,157.9 1314.2,254.3 2138,254.3"
         style="fill:#ffffff;fill-opacity:1;fill-rule:nonzero;stroke:none"
         id="path193" />
      <path
         d="m 23046.1,25547.6 h 332.5 v -87.3 h -236.5 v -93 h 208.4 v -87.4 h -208.4 v -169 h -96 v 436.7"
         style="fill:#ffffff;fill-opacity:1;fill-rule:nonzero;stroke:none"
         id="path195" />
      <path
         d="m 23459.8,25547.6 h 96.1 v -436.7 h -96.1 v 436.7"
         style="fill:#ffffff;fill-opacity:1;fill-rule:nonzero;stroke:none"
         id="path197" />
      <path
         d="m 23635.1,25174.5 56.8,68 c 39.3,-32.4 80.5,-53 130.4,-53 39.3,0 63,15.6 63,41.2 v 1.2 c 0,24.3 -15,36.8 -88,55.5 -87.9,22.5 -144.7,46.8 -144.7,133.6 v 1.2 c 0,79.2 63.6,131.7 152.8,131.7 63.7,0 118,-20 162.3,-55.6 l -49.9,-72.4 c -38.7,26.9 -76.8,43.1 -113.6,43.1 -36.8,0 -56.2,-16.9 -56.2,-38.1 v -1.2 c 0,-28.7 18.8,-38.1 94.3,-57.4 88.6,-23.1 138.5,-54.9 138.5,-131 v -1.3 c 0,-86.7 -66.2,-135.4 -160.4,-135.4 -66.1,0 -132.9,23.1 -185.3,69.9"
         style="fill:#ffffff;fill-opacity:1;fill-rule:nonzero;stroke:none"
         id="path199" />
      <path
         d="m 24064.4,25547.6 h 96.1 v -172.8 h 177.2 v 172.8 h 96.1 v -436.7 h -96.1 v 175.3 h -177.2 v -175.3 h -96.1 v 436.7"
         style="fill:#ffffff;fill-opacity:1;fill-rule:nonzero;stroke:none"
         id="path201" />
      <path
         d="m 24013.4,28266 c -553.2,0 -1044.7,-267.3 -1355.3,-681.3 -159.4,219.5 -354.4,410.7 -576.1,565.5 38.8,-208.5 199.4,-423.3 199.4,-643.1 0,-219.9 -160.6,-434.7 -199.4,-643.1 221.7,154.8 416.7,345.9 576.1,565.4 310.6,-414 802.1,-681.2 1355.3,-681.2 587.1,0 1104.8,300.9 1410.5,758.9 -305.7,457.9 -823.4,758.9 -1410.5,758.9"
         style="fill:#f8b30a;fill-opacity:1;fill-rule:nonzero;stroke:none"
         id="path203" />
      <path
         d="m 24898.2,27664.4 c 0,-72.5 -58.8,-131.3 -131.3,-131.3 -72.6,0 -131.3,58.8 -131.3,131.3 0,72.5 58.7,131.3 131.3,131.3 72.5,0 131.3,-58.8 131.3,-131.3"
         style="fill:#ffffff;fill-opacity:1;fill-rule:nonzero;stroke:none"
         id="path205" />
      <path
         d="m 11054.4,34099.8 c 0,-1592.9 -1291.32,-2884.3 -2884.25,-2884.3 -1592.97,0 -2884.3,1291.4 -2884.3,2884.3 0,1592.9 1291.33,2884.3 2884.3,2884.3 1592.93,0 2884.25,-1291.4 2884.25,-2884.3"
         style="fill:#f8b30a;fill-opacity:1;fill-rule:nonzero;stroke:none"
         id="path207"
         inkscape:export-filename="../../Documents/GitHub/pucciaria1.0/img/allergeni/alchool.svg"
         inkscape:export-xdpi="11.982214"
         inkscape:export-ydpi="11.982214" />
      <path
         d="m 6051.03,32827.3 c 561.71,154.8 1304.49,249 2119.1,249 814.63,0 1557.4,-94.2 2119.07,-249 h 11.4 c 222.7,372.1 350.8,807.3 350.8,1272.5 0,1370.4 -1110.9,2481.3 -2481.25,2481.3 -1370.41,0 -2481.29,-1110.9 -2481.29,-2481.3 0,-465.2 128.12,-900.4 350.88,-1272.5 h 11.29"
         style="fill:#ffffff;fill-opacity:1;fill-rule:nonzero;stroke:none"
         id="path209" />
      <path
         d="m 6861.6,32360.3 -58.03,141.6 -58.02,-141.6 z m -101.08,257.1 h 88.6 l 187.18,-439.9 h -100.45 l -39.93,97.9 h -184.69 l -39.93,-97.9 h -97.96 l 187.18,439.9"
         style="fill:#ffffff;fill-opacity:1;fill-rule:nonzero;stroke:none"
         id="path211" />
      <path
         d="m 7103.74,32614.3 h 96.08 v -349.5 h 217.75 v -87.3 h -313.83 v 436.8"
         style="fill:#ffffff;fill-opacity:1;fill-rule:nonzero;stroke:none"
         id="path213" />
      <path
         d="m 7445.68,32394.6 v 1.3 c 0,124.1 93.6,225.8 227.74,225.8 82.36,0 131.65,-27.4 172.21,-67.3 l -61.15,-70.5 c -33.69,30.5 -68.01,49.2 -111.68,49.2 -73.63,0 -126.66,-61.1 -126.66,-136 v -1.2 c 0,-74.9 51.78,-137.3 126.66,-137.3 49.91,0 80.48,20 114.8,51.2 l 61.15,-61.8 c -44.93,-48 -94.84,-78 -179.07,-78 -128.53,0 -224,99.2 -224,224.6"
         style="fill:#ffffff;fill-opacity:1;fill-rule:nonzero;stroke:none"
         id="path215" />
      <path
         d="m 8257.47,32394.6 v 1.3 c 0,74.8 -54.9,137.2 -132.27,137.2 -77.37,0 -131.03,-61.1 -131.03,-136 v -1.2 c 0,-74.9 54.91,-137.3 132.28,-137.3 77.36,0 131.02,61.2 131.02,136 z m -363.75,0 v 1.3 c 0,124.1 97.95,225.8 232.73,225.8 134.77,0 231.47,-100.4 231.47,-224.6 v -1.2 c 0,-124.2 -97.95,-225.9 -232.72,-225.9 -134.77,0 -231.48,100.5 -231.48,224.6"
         style="fill:#ffffff;fill-opacity:1;fill-rule:nonzero;stroke:none"
         id="path217" />
      <path
         d="m 8443.46,32614.3 h 96.08 v -172.9 h 177.2 v 172.9 h 96.08 v -436.8 h -96.08 v 175.3 h -177.2 v -175.3 h -96.08 v 436.8"
         style="fill:#ffffff;fill-opacity:1;fill-rule:nonzero;stroke:none"
         id="path219" />
      <path
         d="m 9262.1,32394.6 v 1.3 c 0,74.8 -54.9,137.2 -132.27,137.2 -77.37,0 -131.03,-61.1 -131.03,-136 v -1.2 c 0,-74.9 54.91,-137.3 132.27,-137.3 77.37,0 131.03,61.2 131.03,136 z m -363.75,0 v 1.3 c 0,124.1 97.96,225.8 232.72,225.8 134.77,0 231.48,-100.4 231.48,-224.6 v -1.2 c 0,-124.2 -97.95,-225.9 -232.72,-225.9 -134.77,0 -231.48,100.5 -231.48,224.6"
         style="fill:#ffffff;fill-opacity:1;fill-rule:nonzero;stroke:none"
         id="path221" />
      <path
         d="m 9448.09,32614.3 h 96.08 v -349.5 h 217.75 v -87.3 h -313.83 v 436.8"
         style="fill:#ffffff;fill-opacity:1;fill-rule:nonzero;stroke:none"
         id="path223" />
      <path
         d="M 9216.24,35922.5 H 7144.87 c 0,0 -62.24,5.9 -77.93,-26.2 -19.06,-39.1 5.1,-66.5 5.1,-66.5 l 994.43,-1150.5 V 33662.8 H 7664.5 c -47.26,0 -83.14,-35.4 -83.14,-82.8 0,-47.1 35.88,-94.5 83.14,-94.5 h 1005.29 c 59.5,0 94.56,47.4 94.56,94.5 0,47.4 -35.06,82.8 -94.56,82.8 h -390.56 v 1017.9 l 955.88,1105.9 c 0,0 45.54,42.3 45.54,91.3 0,46.2 -64.41,44.6 -64.41,44.6"
         style="fill:#f8b30a;fill-opacity:1;fill-rule:evenodd;stroke:none"
         id="path225" />
      <path
         d="m 18839.3,34039.3 c 0,-1593 -1291.3,-2884.3 -2884.3,-2884.3 -1592.9,0 -2884.2,1291.3 -2884.2,2884.3 0,1592.9 1291.3,2884.3 2884.2,2884.3 1593,0 2884.3,-1291.4 2884.3,-2884.3"
         style="fill:#f8b30a;fill-opacity:1;fill-rule:nonzero;stroke:none"
         id="path227"
         inkscape:export-filename="../../Documents/GitHub/pucciaria1.0/img/allergeni/mollusc.svg"
         inkscape:export-xdpi="11.982214"
         inkscape:export-ydpi="11.982214" />
      <path
         d="m 15928.3,33029.6 c 834,0 1592.5,-98.8 2158.7,-260.2 221.8,371.5 349.3,805.8 349.3,1269.9 0,1370.3 -1110.9,2481.3 -2481.3,2481.3 -1370.3,0 -2481.2,-1111 -2481.2,-2481.3 0,-458.8 124.7,-888.4 341.7,-1257 561,153.8 1301.2,247.3 2112.8,247.3"
         style="fill:#ffffff;fill-opacity:1;fill-rule:nonzero;stroke:none"
         id="path229" />
      <path
         d="m 14225.9,32527.7 h 103.6 l 114.8,-184.7 114.8,184.7 h 103.6 V 32091 h -95.5 v 285.1 l -122.9,-186.5 h -2.5 l -121.6,184.6 V 32091 h -94.3 v 436.7"
         style="fill:#ffffff;fill-opacity:1;fill-rule:nonzero;stroke:none"
         id="path231" />
      <path
         d="m 15112,32308.1 v 1.3 c 0,74.8 -54.9,137.2 -132.3,137.2 -77.4,0 -131,-61.1 -131,-136 v -1.2 c 0,-74.9 54.9,-137.3 132.3,-137.3 77.3,0 131,61.1 131,136 z m -363.8,0 v 1.3 c 0,124.1 98,225.8 232.8,225.8 134.7,0 231.4,-100.4 231.4,-224.6 v -1.2 c 0,-124.2 -97.9,-225.9 -232.7,-225.9 -134.8,0 -231.5,100.4 -231.5,224.6"
         style="fill:#ffffff;fill-opacity:1;fill-rule:nonzero;stroke:none"
         id="path233" />
      <path
         d="m 15298,32527.7 h 96 v -349.4 h 217.8 V 32091 H 15298 v 436.7"
         style="fill:#ffffff;fill-opacity:1;fill-rule:nonzero;stroke:none"
         id="path235" />
      <path
         d="m 15684.2,32527.7 h 96.1 v -349.4 h 217.7 v -87.3 h -313.8 v 436.7"
         style="fill:#ffffff;fill-opacity:1;fill-rule:nonzero;stroke:none"
         id="path237" />
      <path
         d="m 16051.1,32278.2 v 249.5 h 96.1 v -247.1 c 0,-71.1 35.6,-107.9 94.2,-107.9 58.7,0 94.2,35.6 94.2,104.8 v 250.2 h 96.1 v -246.4 c 0,-132.3 -74.2,-197.2 -191.5,-197.2 -117.3,0 -189.1,65.5 -189.1,194.1"
         style="fill:#ffffff;fill-opacity:1;fill-rule:nonzero;stroke:none"
         id="path239" />
      <path
         d="m 16499.8,32154.6 56.8,68 c 39.3,-32.4 80.4,-53 130.4,-53 39.3,0 63,15.6 63,41.2 v 1.2 c 0,24.4 -15,36.8 -88,55.5 -88,22.5 -144.8,46.8 -144.8,133.6 v 1.2 c 0,79.3 63.7,131.7 152.9,131.7 63.7,0 117.9,-20 162.2,-55.6 l -49.9,-72.3 c -38.7,26.8 -76.7,43 -113.5,43 -36.8,0 -56.2,-16.8 -56.2,-38 v -1.3 c 0,-28.7 18.7,-38.1 94.2,-57.4 88.6,-23.1 138.5,-54.9 138.5,-131 v -1.3 c 0,-86.7 -66.1,-135.4 -160.3,-135.4 -66.2,0 -132.9,23.1 -185.3,69.9"
         style="fill:#ffffff;fill-opacity:1;fill-rule:nonzero;stroke:none"
         id="path241" />
      <path
         d="m 16909.7,32308.1 v 1.3 c 0,124.1 93.6,225.8 227.8,225.8 82.3,0 131.6,-27.4 172.2,-67.4 l -61.2,-70.5 c -33.7,30.6 -68,49.3 -111.6,49.3 -73.7,0 -126.7,-61.1 -126.7,-136 v -1.2 c 0,-74.9 51.8,-137.3 126.7,-137.3 49.9,0 80.4,20 114.8,51.1 l 61.1,-61.7 c -44.9,-48.1 -94.8,-78 -179.1,-78 -128.5,0 -224,99.2 -224,224.6"
         style="fill:#ffffff;fill-opacity:1;fill-rule:nonzero;stroke:none"
         id="path243" />
      <path
         d="m 17359.6,32154.6 56.8,68 c 39.3,-32.4 80.5,-53 130.4,-53 39.3,0 63,15.6 63,41.2 v 1.2 c 0,24.4 -14.9,36.8 -87.9,55.5 -88,22.5 -144.8,46.8 -144.8,133.6 v 1.2 c 0,79.3 63.7,131.7 152.9,131.7 63.6,0 117.9,-20 162.2,-55.6 l -49.9,-72.3 c -38.7,26.8 -76.8,43 -113.6,43 -36.8,0 -56.1,-16.8 -56.1,-38 v -1.3 c 0,-28.7 18.7,-38.1 94.2,-57.4 88.6,-23.1 138.5,-54.9 138.5,-131 v -1.3 c 0,-86.7 -66.1,-135.4 -160.3,-135.4 -66.2,0 -132.9,23.1 -185.4,69.9"
         style="fill:#ffffff;fill-opacity:1;fill-rule:nonzero;stroke:none"
         id="path245" />
      <path
         d="m 17105.6,34981.8 -29.8,11.3 -395.6,-496.4 c -6.7,-9 -16.9,-13.7 -27.3,-13.7 -7,0 -14.1,2.2 -20.2,6.8 -15,11.2 -18.1,32.4 -6.9,47.5 l 416,523.7 2.8,65.7 c 7.1,163.2 -114.5,303.6 -277.1,319.9 l -99.1,9.9 -274.6,-725.3 c -5.1,-14.1 -18.1,-22.8 -31.9,-22.8 -3.9,0 -7.8,0.7 -11.7,2.1 -17.6,6.6 -26.7,26.5 -20.2,44.5 l 278.7,736.3 13.4,31.5 c -57.7,140.3 -213,221.3 -365.8,179.7 l -29.3,-8 -119,-864.1 c -2.2,-17.4 -16.8,-30.1 -33.6,-30.1 -1.5,0 -2.9,0 -4.4,0.2 -18.6,2.5 -31.7,19.8 -29.3,38.7 l 118.9,863.6 -1.6,9.1 -49.8,36.5 c -108.4,79.5 -255.9,79.5 -364.3,0 l -49.7,-36.4 -1.7,-9.4 113.4,-841.3 c 2.4,-18.9 -10.8,-36.2 -29.4,-38.6 -1.4,-0.2 -2.9,-0.3 -4.3,-0.3 -16.9,0 -31.5,12.7 -33.7,30.1 l -113.5,842 -29.1,8 c -158,43 -318.6,-45 -371.3,-194.1 l 18.1,-35.6 293.1,-759.4 c 6.4,-17.7 -2.6,-37.1 -20.2,-43.6 -3.9,-1.4 -7.8,-2.1 -11.7,-2.1 -13.9,0 -26.8,8.6 -31.9,22.3 l -292.3,757.6 -4.9,8 -90.2,-9 c -162.6,-16.3 -284.2,-156.7 -277.1,-319.9 l 2.5,-58 435.3,-553.4 c 11.2,-15 8.1,-36.3 -6.9,-47.5 -6.1,-4.6 -13.3,-6.7 -20.3,-6.7 -10.4,0 -20.6,4.7 -27.3,13.6 l -410.3,520 -33.9,-12.9 c -146.1,-55.1 -234.7,-203.6 -214,-358.3 11.6,-86.4 56.5,-164.8 124.9,-218.8 l 732.7,-576.8 -23.5,-70.7 c -18,-53.7 -17.8,-113.4 7,-164.3 40.7,-83.5 125.9,-127.9 211.5,-119.6 l 340.9,-1 340.8,1 c 85.6,-8.3 170.8,36.1 211.5,119.6 24.9,50.9 25,110.5 7.1,164.3 l -23.6,70.7 732.7,576.8 c 68.5,54 113.3,132.4 124.9,218.8 20.8,154.7 -67.9,303.2 -213.9,358.3"
         style="fill:#f8b30a;fill-opacity:1;fill-rule:nonzero;stroke:none"
         id="path247" />
      <path
         d="m 34409.2,34099.8 c 0,-1592.9 -1291.4,-2884.3 -2884.3,-2884.3 -1593,0 -2884.3,1291.4 -2884.3,2884.3 0,1593 1291.3,2884.3 2884.3,2884.3 1592.9,0 2884.3,-1291.3 2884.3,-2884.3"
         style="fill:#f8b30a;fill-opacity:1;fill-rule:nonzero;stroke:none"
         id="path249"
         inkscape:export-filename="../../Documents/GitHub/pucciaria1.0/img/allergeni/frutta-a-guscio.svg"
         inkscape:export-xdpi="11.982214"
         inkscape:export-ydpi="11.982214" />
      <path
         d="m 31524.9,33082.4 c 820.8,0 1568.7,-95.6 2131.9,-252.5 221.8,371.5 349.3,805.8 349.3,1269.9 0,1370.4 -1110.9,2481.3 -2481.2,2481.3 -1370.4,0 -2481.3,-1110.9 -2481.3,-2481.3 0,-464.1 127.5,-898.4 349.3,-1269.9 563.2,156.9 1311.2,252.5 2132,252.5"
         style="fill:#ffffff;fill-opacity:1;fill-rule:nonzero;stroke:none"
         id="path251" />
      <path
         d="m 30697.7,32614.3 h 88.6 l 204.7,-269 v 269 h 94.8 v -436.8 h -81.7 l -211.5,277.7 v -277.7 h -94.9 v 436.8"
         style="fill:#ffffff;fill-opacity:1;fill-rule:nonzero;stroke:none"
         id="path253" />
      <path
         d="m 31183.8,32364.7 v 249.6 h 96.1 v -247.1 c 0,-71.2 35.6,-108 94.2,-108 58.7,0 94.2,35.6 94.2,104.9 v 250.2 h 96.1 v -246.5 c 0,-132.3 -74.2,-197.2 -191.5,-197.2 -117.3,0 -189.1,65.6 -189.1,194.1"
         style="fill:#ffffff;fill-opacity:1;fill-rule:nonzero;stroke:none"
         id="path255" />
      <path
         d="m 31764.1,32525.7 h -132.8 v 88.6 h 361.8 v -88.6 h -132.9 v -348.2 h -96.1 v 348.2"
         style="fill:#ffffff;fill-opacity:1;fill-rule:nonzero;stroke:none"
         id="path257" />
      <path
         d="m 32027.5,32241.1 56.8,68.1 c 39.3,-32.5 80.4,-53.1 130.4,-53.1 39.3,0 63,15.6 63,41.2 v 1.2 c 0,24.4 -15,36.9 -88,55.6 -88,22.4 -144.7,46.8 -144.7,133.5 v 1.2 c 0,79.3 63.6,131.7 152.8,131.7 63.7,0 117.9,-20 162.2,-55.5 l -49.9,-72.4 c -38.7,26.8 -76.7,43 -113.5,43 -36.8,0 -56.2,-16.8 -56.2,-38 v -1.3 c 0,-28.7 18.7,-38 94.2,-57.4 88.6,-23.1 138.5,-54.9 138.5,-131 v -1.2 c 0,-86.8 -66.1,-135.4 -160.3,-135.4 -66.1,0 -132.9,23.1 -185.3,69.8"
         style="fill:#ffffff;fill-opacity:1;fill-rule:nonzero;stroke:none"
         id="path259" />
      <path
         d="m 31418,34930.7 c -460.3,-92.9 -724,-333.7 -724,-333.7 123.1,-517.8 519.9,-990.8 896.8,-991.5 26.4,-75.5 92.8,-122.9 156.9,-108.1 64,14.5 102.7,85.7 94.5,164.4 110.1,52.8 204.6,140.2 277.6,256.8 28.2,45 53.2,94.1 74.4,147.7 90.9,226.3 82.9,607.8 22.2,881.1 0,0 -325.5,78.8 -798.4,-16.7"
         style="fill:#f8b30a;fill-opacity:1;fill-rule:evenodd;stroke:none"
         id="path261" />
      <path
         d="m 30637.6,34667.1 c 214,154.3 473,273 762.4,338.1 288.2,64.9 572.1,68.7 830.8,21.5 l 7.7,15.9 c 46.7,97.8 60.2,199 38.7,292.5 -69.4,301.7 -464.6,464.5 -924.2,395.6 -12.2,135 -69.8,264.5 -166.8,361.6 -36.1,36.1 -94.5,36.2 -130.4,0.3 -36.3,-36 -36,-94.3 -0.2,-130.4 72,-72 113,-169.9 116.2,-271 -281.3,-78.6 -515.6,-232.4 -633.7,-421 -72.2,-115.4 -96.5,-236.8 -70.2,-351.3 21.5,-93.5 77.9,-178.6 162.6,-246.2 l 7.1,-5.6"
         style="fill:#f8b30a;fill-opacity:1;fill-rule:evenodd;stroke:none"
         id="path263" />
      <path
         d="m 26624.2,34119.3 c 0,-1592.9 -1291.3,-2884.3 -2884.2,-2884.3 -1593,0 -2884.3,1291.4 -2884.3,2884.3 0,1593 1291.3,2884.3 2884.3,2884.3 1592.9,0 2884.2,-1291.3 2884.2,-2884.3"
         style="fill:#f8b30a;fill-opacity:1;fill-rule:nonzero;stroke:none"
         id="path265"
         inkscape:export-filename="../../Documents/GitHub/pucciaria1.0/img/allergeni/soia.svg"
         inkscape:export-xdpi="11.982214"
         inkscape:export-ydpi="11.982214" />
      <path
         d="m 23761.8,33108.9 c 813.4,0 1555.2,-94 2116.6,-248.4 217.7,369.1 342.8,799.3 342.8,1258.8 0,1370.4 -1110.9,2481.3 -2481.2,2481.3 -1370.4,0 -2481.3,-1110.9 -2481.3,-2481.3 0,-463.9 127.4,-897.9 349,-1269.3 565.6,160.6 1322.4,258.9 2154.1,258.9"
         style="fill:#ffffff;fill-opacity:1;fill-rule:nonzero;stroke:none"
         id="path267" />
      <path
         d="m 23092.9,32221.6 56.7,68 c 39.3,-32.4 80.5,-53 130.4,-53 39.3,0 63.1,15.6 63.1,41.2 v 1.2 c 0,24.4 -15,36.9 -88,55.6 -88,22.4 -144.8,46.8 -144.8,133.5 v 1.2 c 0,79.3 63.7,131.7 152.9,131.7 63.6,0 117.9,-20 162.2,-55.6 l -49.9,-72.3 c -38.7,26.8 -76.7,43 -113.6,43 -36.8,0 -56.1,-16.8 -56.1,-38 v -1.3 c 0,-28.7 18.7,-38 94.2,-57.4 88.6,-23.1 138.5,-54.9 138.5,-131 v -1.2 c 0,-86.8 -66.1,-135.4 -160.3,-135.4 -66.2,0 -132.9,23 -185.3,69.8"
         style="fill:#ffffff;fill-opacity:1;fill-rule:nonzero;stroke:none"
         id="path269" />
      <path
         d="m 23866.6,32375.1 v 1.3 c 0,74.8 -54.9,137.2 -132.3,137.2 -77.4,0 -131,-61.1 -131,-136 v -1.2 c 0,-74.9 54.9,-137.3 132.2,-137.3 77.4,0 131.1,61.1 131.1,136 z m -363.8,0 v 1.3 c 0,124.1 98,225.8 232.7,225.8 134.8,0 231.5,-100.4 231.5,-224.6 v -1.2 c 0,-124.2 -97.9,-225.9 -232.7,-225.9 -134.8,0 -231.5,100.5 -231.5,224.6"
         style="fill:#ffffff;fill-opacity:1;fill-rule:nonzero;stroke:none"
         id="path271" />
      <path
         d="m 24138,32330.2 -167.8,264.6 h 112.3 l 104.2,-175.4 106.1,175.4 h 109.2 l -167.9,-262.7 V 32158 h -96.1 v 172.2"
         style="fill:#ffffff;fill-opacity:1;fill-rule:nonzero;stroke:none"
         id="path273" />
      <path
         d="m 24179.6,34854.6 c -99.7,134.7 -200.1,209.4 -392,269.3 -85.8,26.8 -288.6,57.4 -309.1,222.9 -27.3,219.2 -121.6,340.5 -389.5,432.3 -153.6,52.6 -414.4,136.9 -502.7,51 -63.1,-61.3 -31.3,-375.7 -0.6,-540.4 46,-247.1 213.9,-365.9 421.1,-401.4 164.4,-28.2 197.7,-227 214.1,-315.3 25.9,-139.8 40.4,-265.5 238.9,-406.1 168.1,-119.1 389,-92 506.9,-213.3 118,-121.4 94.1,-300.1 285,-462 372.4,-315.8 889.3,128.2 587.7,571.5 -140.7,206.9 -335.7,176.4 -453.7,297.8 -118,121.4 -20.4,242.8 -206.1,493.7"
         style="fill:#f8b30a;fill-opacity:1;fill-rule:nonzero;stroke:none"
         id="path275" />
      <path
         d="m 22783.3,35607 c -110,-106.9 -89.2,-306.8 46.4,-446.3 135.7,-139.6 334.9,-166 444.9,-59 110,106.9 89.3,306.8 -46.5,446.3 -135.6,139.6 -334.8,166 -444.8,59"
         style="fill:#ffffff;fill-opacity:1;fill-rule:nonzero;stroke:none"
         id="path277" />
      <path
         d="m 23479.5,34864.5 c -131.8,-128.1 -123.8,-341.2 38.7,-508.3 162.6,-167.3 401.3,-198.9 533.1,-70.8 131.8,128.2 106.9,367.6 -55.7,534.9 -162.6,167.2 -384.2,172.4 -516.1,44.2"
         style="fill:#ffffff;fill-opacity:1;fill-rule:nonzero;stroke:none"
         id="path279" />
      <path
         d="m 24252.1,34073.2 c -101.1,-98.3 -82,-282.1 42.7,-410.3 124.8,-128.4 307.8,-152.6 409,-54.3 101.1,98.3 82,282 -42.7,410.4 -124.7,128.2 -307.8,152.5 -409,54.2"
         style="fill:#ffffff;fill-opacity:1;fill-rule:nonzero;stroke:none"
         id="path281" />
      <path
         d="m 11054.4,12847.9 c 0,-1592.9 -1291.32,-2884.3 -2884.27,-2884.3 -1592.95,0 -2884.28,1291.4 -2884.28,2884.3 0,1592.9 1291.33,2884.3 2884.28,2884.3 1592.95,0 2884.27,-1291.4 2884.27,-2884.3"
         style="fill:#f8b30a;fill-opacity:1;fill-rule:nonzero;stroke:none"
         id="path283" />
      <path
         d="m 8170.11,11833.3 c 821.48,0 1570.02,-95.8 2133.39,-252.9 220.9,370.9 347.9,804.3 347.9,1267.5 0,1370.3 -1110.9,2481.3 -2481.27,2481.3 -1370.39,0 -2481.29,-1111 -2481.29,-2481.3 0,-463.1 127.05,-896.5 347.93,-1267.5 563.36,157.1 1311.87,252.9 2133.34,252.9"
         style="fill:#ffffff;fill-opacity:1;fill-rule:nonzero;stroke:none"
         id="path285" />
      <path
         d="m 6701.55,11323.3 h 96.08 v -349.4 h 217.76 v -87.3 h -313.84 v 436.7"
         style="fill:#ffffff;fill-opacity:1;fill-rule:nonzero;stroke:none"
         id="path287" />
      <path
         d="m 7338.62,11069.4 -58.03,141.6 -58.02,-141.6 z m -101.08,257.1 h 88.6 l 187.18,-439.9 h -100.45 l -39.94,97.9 h -184.68 l -39.93,-97.9 h -97.96 l 187.18,439.9"
         style="fill:#ffffff;fill-opacity:1;fill-rule:nonzero;stroke:none"
         id="path289" />
      <path
         d="m 7533.33,11103.7 v 1.3 c 0,124.1 93.59,225.8 227.73,225.8 82.37,0 131.65,-27.4 172.21,-67.4 l -61.14,-70.5 c -33.7,30.6 -68.01,49.3 -111.69,49.3 -73.62,0 -126.66,-61.1 -126.66,-136 v -1.2 c 0,-74.9 51.79,-137.3 126.66,-137.3 49.92,0 80.49,20 114.8,51.2 l 61.15,-61.8 c -44.93,-48.1 -94.84,-78 -179.07,-78 -128.53,0 -223.99,99.2 -223.99,224.6"
         style="fill:#ffffff;fill-opacity:1;fill-rule:nonzero;stroke:none"
         id="path291" />
      <path
         d="m 8114.88,11234.7 h -132.9 v 88.6 h 361.88 v -88.6 h -132.89 v -348.1 h -96.09 v 348.1"
         style="fill:#ffffff;fill-opacity:1;fill-rule:nonzero;stroke:none"
         id="path293" />
      <path
         d="m 8743.22,11103.7 v 1.3 c 0,74.8 -54.91,137.2 -132.27,137.2 -77.38,0 -131.03,-61.1 -131.03,-136 v -1.2 c 0,-74.9 54.9,-137.3 132.27,-137.3 77.37,0 131.03,61.1 131.03,136 z m -363.75,0 v 1.3 c 0,124.1 97.95,225.8 232.72,225.8 134.77,0 231.48,-100.4 231.48,-224.6 v -1.2 c 0,-124.2 -97.96,-225.9 -232.72,-225.9 -134.77,0 -231.48,100.5 -231.48,224.6"
         style="fill:#ffffff;fill-opacity:1;fill-rule:nonzero;stroke:none"
         id="path295" />
      <path
         d="m 8896.14,10950.2 56.78,68 c 39.31,-32.4 80.49,-53 130.4,-53 39.31,0 63.02,15.6 63.02,41.2 v 1.2 c 0,24.4 -14.98,36.8 -87.98,55.6 -87.97,22.4 -144.75,46.8 -144.75,133.5 v 1.2 c 0,79.3 63.64,131.7 152.86,131.7 63.65,0 117.92,-20 162.23,-55.6 l -49.92,-72.3 c -38.68,26.8 -76.74,43 -113.56,43 -36.81,0 -56.15,-16.8 -56.15,-38 v -1.3 c 0,-28.7 18.72,-38 94.22,-57.4 88.59,-23.1 138.51,-54.9 138.51,-131 v -1.3 c 0,-86.7 -66.14,-135.4 -160.35,-135.4 -66.14,0 -132.9,23.1 -185.31,69.9"
         style="fill:#ffffff;fill-opacity:1;fill-rule:nonzero;stroke:none"
         id="path297" />
      <path
         d="m 9325.45,11323.3 h 329.43 v -85.4 h -233.97 v -88.6 h 205.9 v -85.5 h -205.9 v -91.7 h 237.1 v -85.5 h -332.56 v 436.7"
         style="fill:#ffffff;fill-opacity:1;fill-rule:nonzero;stroke:none"
         id="path299" />
      <path
         d="m 7554.29,13813.4 0.6,2.7 0.78,2.6 217.84,746.3 c 2.16,8.7 5.03,17.3 8.47,25.6 -53.32,21.4 -90.97,73.6 -90.97,134.5 0,80 64.86,144.9 144.84,144.9 h 575.19 c 80.02,0 144.87,-64.9 144.87,-144.9 0,-60.9 -37.62,-113 -90.88,-134.4 3.44,-8.4 6.31,-16.9 8.48,-25.7 l 217.83,-746.3 0.76,-2.6 0.61,-2.7 c 44.16,-190.4 39.53,-335.8 36.13,-442 -0.45,-14.2 -0.88,-27.6 -1.15,-40.1 V 12509 c 0,-231.4 -188.31,-419.7 -419.79,-419.7 h -368.81 c -231.44,0 -419.76,188.3 -419.76,419.7 v 852.6 l -0.24,9.5 c -2.99,116.6 -6.7,261.7 35.2,442.3"
         style="fill:#f8b30a;fill-opacity:1;fill-rule:nonzero;stroke:none"
         id="path301" />
      <path
         d="m 7614.89,13517 c 2.8,-1 5.63,-1.7 8.44,-2.7 9.26,-3.1 67.29,-19 69.08,-19.4 10.22,-2.3 118.13,-25.7 213.87,-8.7 164.76,29.3 309.12,122.2 456,195.8 112.24,56.2 202.24,51.1 202.24,51.1 10.7,-0.3 42.15,-5.3 47.11,-6.5 31.09,-170.9 21.17,-300.2 19.2,-393.7 V 12509 c 0,-178.3 -144.59,-322.8 -322.93,-322.8 h -368.81 c -178.34,0 -322.89,144.5 -322.89,322.8 v 853.7 c -1.17,46.8 -2.69,98 -1.31,154.3"
         style="fill:#ffffff;fill-opacity:1;fill-rule:nonzero;stroke:none"
         id="path303" />
      <path
         d="m 18839.3,12899.9 c 0,-1592.9 -1291.3,-2884.3 -2884.3,-2884.3 -1592.9,0 -2884.2,1291.4 -2884.2,2884.3 0,1592.9 1291.3,2884.3 2884.2,2884.3 1593,0 2884.3,-1291.4 2884.3,-2884.3"
         style="fill:#f8b30a;fill-opacity:1;fill-rule:nonzero;stroke:none"
         id="path305" />
      <path
         d="m 15955.1,11885.7 c 821.5,0 1570.1,-95.9 2133.5,-253 220.8,370.9 347.7,804.2 347.7,1267.2 0,1370.4 -1110.9,2481.3 -2481.3,2481.3 -1370.3,0 -2481.2,-1110.9 -2481.2,-2481.3 0,-463 127,-896.3 347.7,-1267.2 563.4,157.1 1312,253 2133.6,253"
         style="fill:#ffffff;fill-opacity:1;fill-rule:nonzero;stroke:none"
         id="path307" />
      <path
         d="m 14818.2,11002.2 56.8,68 c 39.3,-32.4 80.5,-53 130.4,-53 39.3,0 63,15.6 63,41.2 v 1.2 c 0,24.4 -15,36.8 -88,55.6 -87.9,22.4 -144.7,46.8 -144.7,133.5 v 1.2 c 0,79.3 63.6,131.7 152.9,131.7 63.6,0 117.9,-20 162.2,-55.5 l -49.9,-72.4 c -38.7,26.8 -76.8,43 -113.6,43 -36.8,0 -56.1,-16.8 -56.1,-38 v -1.3 c 0,-28.7 18.7,-38 94.2,-57.4 88.6,-23.1 138.5,-54.9 138.5,-131 v -1.3 c 0,-86.7 -66.2,-135.4 -160.4,-135.4 -66.1,0 -132.9,23.1 -185.3,69.9"
         style="fill:#ffffff;fill-opacity:1;fill-rule:nonzero;stroke:none"
         id="path309" />
      <path
         d="m 15240.7,11125.8 v 249.5 h 96 v -247 c 0,-71.2 35.6,-108 94.3,-108 58.6,0 94.2,35.6 94.2,104.8 v 250.2 h 96.1 v -246.4 c 0,-132.3 -74.3,-197.2 -191.6,-197.2 -117.3,0 -189,65.5 -189,194.1"
         style="fill:#ffffff;fill-opacity:1;fill-rule:nonzero;stroke:none"
         id="path311" />
      <path
         d="m 15699.9,11155.7 v 1.3 c 0,124.1 96.7,225.8 229,225.8 78.6,0 126.1,-21.2 171.6,-59.9 l -60.5,-73 c -33.7,28.1 -63.7,44.3 -114.2,44.3 -69.9,0 -125.4,-61.7 -125.4,-136 v -1.2 c 0,-79.9 54.9,-138.5 132.3,-138.5 34.9,0 66.1,8.7 90.4,26.2 v 62.4 h -96.7 v 82.9 h 189.7 v -189.6 c -44.9,-38.1 -106.7,-69.3 -186.6,-69.3 -136,0 -229.6,95.5 -229.6,224.6"
         style="fill:#ffffff;fill-opacity:1;fill-rule:nonzero;stroke:none"
         id="path313" />
      <path
         d="m 16459.3,11121.4 -58,141.6 -58,-141.6 z m -101.1,257.1 h 88.6 l 187.2,-439.9 h -100.4 l -40,97.9 h -184.7 l -39.9,-97.9 h -97.9 l 187.1,439.9"
         style="fill:#ffffff;fill-opacity:1;fill-rule:nonzero;stroke:none"
         id="path315" />
      <path
         d="m 16894.9,11163.2 c 46.8,0 73.6,25 73.6,61.8 v 1.2 c 0,41.2 -28.7,62.4 -75.5,62.4 h -95.5 v -125.4 z m -193.5,212.1 h 199.7 c 55.5,0 98.6,-15.6 127.3,-44.3 24.3,-24.3 37.4,-58.6 37.4,-99.8 v -1.2 c 0,-70.5 -38,-114.8 -93.6,-135.4 l 106.7,-156 h -112.3 l -93.6,139.7 h -75.5 v -139.7 h -96.1 v 436.7"
         style="fill:#ffffff;fill-opacity:1;fill-rule:nonzero;stroke:none"
         id="path317" />
      <path
         d="m 14520.8,13877.3 429.8,342.3 826.5,78.3 -386.3,-337.9 -870,-82.7"
         style="fill:#ffffff;fill-opacity:1;fill-rule:nonzero;stroke:none"
         id="path319" />
      <path
         d="m 14520.8,13877.3 429.8,342.3 826.5,78.3 -386.3,-337.9 z"
         style="fill:#f8b30a;fill-opacity:1;stroke:#2f3031;stroke-width:99.3616;stroke-linecap:butt;stroke-linejoin:round;stroke-miterlimit:10;stroke-dasharray:none;stroke-opacity:1"
         id="path321" />
      <path
         d="m 15581,13063.1 c 5,-26.7 -12.6,-52.5 -39.4,-57.5 l -817.1,-73.6 c -26.7,-5 -52.5,12.6 -57.5,39.4 l -161.4,860.4 c -5.1,26.8 12.6,52.6 39.3,57.6 l 817.1,73.5 c 26.8,5 52.5,-12.6 57.6,-39.3 l 161.4,-860.5"
         style="fill:#ffffff;fill-opacity:1;fill-rule:nonzero;stroke:none"
         id="path323" />
      <path
         d="m 15581,13063.1 c 5,-26.7 -12.6,-52.5 -39.4,-57.5 l -817.1,-73.6 c -26.7,-5 -52.5,12.6 -57.5,39.4 l -161.4,860.4 c -5.1,26.8 12.6,52.6 39.3,57.6 l 817.1,73.5 c 26.8,5 52.5,-12.6 57.6,-39.3 z"
         style="fill:#f8b30a;fill-opacity:1;stroke:#2f3031;stroke-width:99.3616;stroke-linecap:butt;stroke-linejoin:round;stroke-miterlimit:10;stroke-dasharray:none;stroke-opacity:1"
         id="path325" />
      <path
         d="m 15782.2,14294.4 158.8,-846.2 -367.4,-421.5 -176.9,942.7 385.5,325"
         style="fill:#ffffff;fill-opacity:1;fill-rule:nonzero;stroke:none"
         id="path327" />
      <path
         d="m 15782.2,14294.4 158.8,-846.2 -367.4,-421.5 -176.9,942.7 z"
         style="fill:#f8b30a;fill-opacity:1;stroke:#2f3031;stroke-width:99.3616;stroke-linecap:butt;stroke-linejoin:round;stroke-miterlimit:10;stroke-dasharray:none;stroke-opacity:1"
         id="path329" />
      <path
         d="m 15792.6,13605.3 547.1,289.8 931.7,-85 -498.1,-293.9 -980.7,89.1"
         style="fill:#ffffff;fill-opacity:1;fill-rule:nonzero;stroke:none"
         id="path331" />
      <path
         d="m 15792.6,13605.3 547.1,289.8 931.7,-85 -498.1,-293.9 z"
         style="fill:#f8b30a;fill-opacity:1;stroke:#2f3031;stroke-width:99.3616;stroke-linecap:round;stroke-linejoin:round;stroke-miterlimit:10;stroke-dasharray:none;stroke-opacity:1"
         id="path333" />
      <path
         d="m 16797.6,12483.4 c 0,-30.7 -24.8,-55.5 -55.5,-55.5 l -920.2,88.3 c -30.7,0 -55.5,24.9 -55.5,55.5 v 986.4 c 0,30.7 24.8,55.6 55.5,55.6 l 920.2,-88.3 c 30.7,0 55.5,-24.9 55.5,-55.6 v -986.4"
         style="fill:#ffffff;fill-opacity:1;fill-rule:nonzero;stroke:none"
         id="path335" />
      <path
         d="m 16797.6,12483.4 c 0,-30.7 -24.8,-55.5 -55.5,-55.5 l -920.2,88.3 c -30.7,0 -55.5,24.9 -55.5,55.5 v 986.4 c 0,30.7 24.8,55.6 55.5,55.6 l 920.2,-88.3 c 30.7,0 55.5,-24.9 55.5,-55.6 z"
         style="fill:#f8b30a;fill-opacity:1;stroke:#2f3031;stroke-width:99.3616;stroke-linecap:butt;stroke-linejoin:round;stroke-miterlimit:10;stroke-dasharray:none;stroke-opacity:1"
         id="path337" />
      <path
         d="M 17276.3,13805.2 V 12835 l -494.5,-390.3 v 1080.7 l 494.5,279.8"
         style="fill:#ffffff;fill-opacity:1;fill-rule:nonzero;stroke:none"
         id="path339" />
      <path
         d="M 17276.3,13805.2 V 12835 l -494.5,-390.3 v 1080.7 z"
         style="fill:#f8b30a;fill-opacity:1;stroke:#2f3031;stroke-width:99.3616;stroke-linecap:round;stroke-linejoin:round;stroke-miterlimit:10;stroke-dasharray:none;stroke-opacity:1"
         id="path341" />
      <path
         d="m 34409.2,12828.4 c 0,-1593 -1291.4,-2884.3 -2884.3,-2884.3 -1593,0 -2884.3,1291.3 -2884.3,2884.3 0,1592.9 1291.3,2884.3 2884.3,2884.3 1592.9,0 2884.3,-1291.4 2884.3,-2884.3"
         style="fill:#f8b30a;fill-opacity:1;fill-rule:nonzero;stroke:none"
         id="path343"
         inkscape:export-filename="../../Documents/GitHub/pucciaria1.0/img/allergeni/senape.svg.svg"
         inkscape:export-xdpi="11.982214"
         inkscape:export-ydpi="11.982214" />
      <path
         d="m 29409.7,11555.9 c 559.7,152.1 1295.8,244.5 2102.4,244.5 806.6,0 1542.8,-92.4 2102.5,-244.5 h 40.7 c 222.7,372 350.8,807.3 350.8,1272.5 0,1370.3 -1110.9,2481.3 -2481.2,2481.3 -1370.4,0 -2481.3,-1111 -2481.3,-2481.3 0,-465.2 128.1,-900.5 350.8,-1272.5 h 15.3"
         style="fill:#ffffff;fill-opacity:1;fill-rule:nonzero;stroke:none"
         id="path345" />
      <path
         d="m 29985.5,11342.8 h 103.5 l 114.8,-184.6 114.9,184.6 h 103.5 v -436.7 h -95.4 v 285.1 l -123,-186.5 h -2.5 l -121.6,184.6 v -283.2 h -94.2 v 436.7"
         style="fill:#ffffff;fill-opacity:1;fill-rule:nonzero;stroke:none"
         id="path347" />
      <path
         d="m 30520.2,11093.3 v 249.5 h 96.1 v -247 c 0,-71.2 35.6,-108 94.2,-108 58.7,0 94.2,35.6 94.2,104.8 v 250.2 h 96.1 v -246.4 c 0,-132.3 -74.2,-197.2 -191.5,-197.2 -117.3,0 -189.1,65.5 -189.1,194.1"
         style="fill:#ffffff;fill-opacity:1;fill-rule:nonzero;stroke:none"
         id="path349" />
      <path
         d="m 30968.9,10969.7 56.8,68 c 39.3,-32.4 80.5,-53 130.4,-53 39.3,0 63,15.6 63,41.2 v 1.2 c 0,24.4 -15,36.8 -88,55.6 -88,22.4 -144.7,46.8 -144.7,133.5 v 1.2 c 0,79.3 63.6,131.7 152.8,131.7 63.7,0 117.9,-20 162.2,-55.6 l -49.9,-72.3 c -38.7,26.8 -76.7,43 -113.5,43 -36.8,0 -56.2,-16.8 -56.2,-38 v -1.3 c 0,-28.7 18.7,-38 94.2,-57.4 88.6,-23.1 138.6,-54.9 138.6,-131 v -1.3 c 0,-86.7 -66.2,-135.4 -160.4,-135.4 -66.1,0 -132.9,23.1 -185.3,69.9"
         style="fill:#ffffff;fill-opacity:1;fill-rule:nonzero;stroke:none"
         id="path351" />
      <path
         d="m 31490.5,11254.2 h -132.9 v 88.6 h 361.9 v -88.6 h -132.9 v -348.1 h -96.1 v 348.1"
         style="fill:#ffffff;fill-opacity:1;fill-rule:nonzero;stroke:none"
         id="path353" />
      <path
         d="m 31987.9,11088.9 -58.1,141.6 -58,-141.6 z m -101.1,257.1 h 88.6 l 187.1,-439.9 h -100.4 l -39.9,97.9 h -184.7 l -40,-97.9 h -97.9 l 187.2,439.9"
         style="fill:#ffffff;fill-opacity:1;fill-rule:nonzero;stroke:none"
         id="path355" />
      <path
         d="m 32423.4,11130.7 c 46.8,0 73.6,25 73.6,61.8 v 1.2 c 0,41.2 -28.7,62.4 -75.5,62.4 h -95.4 v -125.4 z m -193.4,212.1 h 199.6 c 55.6,0 98.6,-15.6 127.3,-44.3 24.4,-24.3 37.5,-58.6 37.5,-99.8 v -1.2 c 0,-70.5 -38.1,-114.8 -93.6,-135.4 l 106.7,-156 h -112.3 l -93.6,139.7 h -75.5 v -139.7 h -96.1 v 436.7"
         style="fill:#ffffff;fill-opacity:1;fill-rule:nonzero;stroke:none"
         id="path357" />
      <path
         d="m 32777.2,11256.1 v -263.3 h 74.3 c 78.6,0 131.6,53 131.6,130.4 v 1.3 c 0,77.3 -53,131.6 -131.6,131.6 z m -96.1,86.7 h 170.4 c 137.2,0 232.1,-94.2 232.1,-217.1 v -1.2 c 0,-123 -94.9,-218.4 -232.1,-218.4 h -170.4 v 436.7"
         style="fill:#ffffff;fill-opacity:1;fill-rule:nonzero;stroke:none"
         id="path359" />
      <path
         d="m 32091.8,12415 c 0,-138.2 -102.9,-250.2 -229.9,-250.2 h -751.5 c -127,0 -230,112 -230,250.2 v 1290.4 c 0,138.1 103,250.2 230,250.2 h 751.5 c 127,0 229.9,-112.1 229.9,-250.2 V 12415"
         style="fill:#f8b30a;fill-opacity:1;fill-rule:nonzero;stroke:none"
         id="path361" />
      <path
         d="m 31903.2,14038.1 v 205.4 c 0,31.7 -25.7,57.5 -57.5,57.5 h -719.2 c -31.7,0 -57.5,-25.8 -57.5,-57.5 v -205.4 h 834.2"
         style="fill:#f8b30a;fill-opacity:1;fill-rule:nonzero;stroke:none"
         id="path363" />
      <path
         d="m 31430.3,14801.1 -49.3,-434 h 210.3 l -49.3,434 h -111.7"
         style="fill:#f8b30a;fill-opacity:1;fill-rule:nonzero;stroke:none"
         id="path365" />
      <path
         d="m 26624.2,12847.9 c 0,-1593 -1291.3,-2884.3 -2884.2,-2884.3 -1593,0 -2884.3,1291.3 -2884.3,2884.3 0,1592.9 1291.3,2884.3 2884.3,2884.3 1592.9,0 2884.2,-1291.4 2884.2,-2884.3"
         style="fill:#f8b30a;fill-opacity:1;fill-rule:nonzero;stroke:none"
         id="path367" />
      <path
         d="m 23755.7,11834.2 c 815.2,0 1558.4,-94.3 2120.2,-249.3 219.3,370 345.3,801.7 345.3,1263 0,1370.3 -1110.9,2481.3 -2481.2,2481.3 -1370.4,0 -2481.3,-1111 -2481.3,-2481.3 0,-464.4 127.7,-898.9 349.7,-1270.6 564.9,159.5 1319,256.9 2147.3,256.9"
         style="fill:#ffffff;fill-opacity:1;fill-rule:nonzero;stroke:none"
         id="path369" />
      <path
         d="m 22992.4,11103.7 v 1.2 c 0,124.2 96.7,225.9 229,225.9 78.6,0 126,-21.2 171.6,-59.9 l -60.5,-73 c -33.7,28.1 -63.7,44.3 -114.2,44.3 -69.9,0 -125.4,-61.8 -125.4,-136 v -1.3 c 0,-79.8 54.9,-138.5 132.2,-138.5 35,0 66.2,8.8 90.5,26.2 v 62.4 h -96.7 v 83 h 189.7 v -189.7 c -44.9,-38 -106.7,-69.2 -186.6,-69.2 -136,0 -229.6,95.5 -229.6,224.6"
         style="fill:#ffffff;fill-opacity:1;fill-rule:nonzero;stroke:none"
         id="path371" />
      <path
         d="m 23501,11323.3 h 103.5 l 114.8,-184.7 114.9,184.7 h 103.5 v -436.7 h -95.4 v 285.1 l -123,-186.5 h -2.5 l -121.6,184.6 v -283.2 h -94.2 v 436.7"
         style="fill:#ffffff;fill-opacity:1;fill-rule:nonzero;stroke:none"
         id="path373" />
      <path
         d="m 24387,11103.7 v 1.2 c 0,74.9 -54.9,137.3 -132.3,137.3 -77.3,0 -131,-61.1 -131,-136 v -1.3 c 0,-74.8 54.9,-137.2 132.3,-137.2 77.3,0 131,61.1 131,136 z m -363.7,0 v 1.2 c 0,124.2 97.9,225.9 232.7,225.9 134.8,0 231.5,-100.4 231.5,-224.6 v -1.3 c 0,-124.1 -98,-225.8 -232.8,-225.8 -134.7,0 -231.4,100.4 -231.4,224.6"
         style="fill:#ffffff;fill-opacity:1;fill-rule:nonzero;stroke:none"
         id="path375" />
      <path
         d="m 24592.5,12246.5 h -1705.1 c -123,0 -212.3,70.4 -212.3,167.4 0,90 38.4,148.7 44.6,157.5 l 695.4,1193.8 v 773.8 c -63.3,64.6 -86,107.1 -73.5,137.3 4.4,10.7 17.3,28.5 54,28.5 2.9,0 5.5,-0.1 7.6,-0.2 9.1,1.9 19.9,2.8 32.3,2.8 20.1,0 39.1,-2.4 44.9,-3.3 h 519.1 c 5.8,0.9 24.8,3.3 44.9,3.3 12.4,0 23.2,-0.9 32.3,-2.8 2.1,0.1 4.7,0.2 7.6,0.2 36.7,0 49.6,-17.8 54,-28.5 12.5,-30.2 -10.2,-72.7 -73.5,-137.3 v -773.8 l 695.4,-1193.8 c 6.2,-8.8 44.6,-67.5 44.6,-157.5 0,-97 -89.3,-167.4 -212.3,-167.4"
         style="fill:#f8b30a;fill-opacity:1;fill-rule:nonzero;stroke:none"
         id="path377" />
      <path
         d="m 23292.5,13301.1 -429.4,-712.4 c 0,0 -46.7,-86.9 -24.7,-150.5 22.1,-63.6 82.1,-85.3 233.6,-82.5 197.2,3.5 1414.3,0 1414.3,0 0,0 130.7,-14 154.4,77.3 26.5,102.1 -14.3,151.9 -92.1,273.8 -77.9,122 -334.8,542.4 -334.8,542.4 0,0 -77,-71.5 -196.3,-89.6 -101.3,-15.4 -223.4,-16.6 -368.1,36.4 -91.3,33.4 -320.5,147.9 -356.9,105.1"
         style="fill:#ffffff;fill-opacity:1;fill-rule:nonzero;stroke:none"
         id="path379" />
      <path
         d="m 11054.4,19973 c 0,-1592.9 -1291.32,-2884.3 -2884.25,-2884.3 -1592.97,0 -2884.3,1291.4 -2884.3,2884.3 0,1593 1291.33,2884.3 2884.3,2884.3 1592.93,0 2884.25,-1291.3 2884.25,-2884.3"
         style="fill:#f8b30a;fill-opacity:1;fill-rule:nonzero;stroke:none"
         id="path381" />
      <path
         d="m 6045.62,18700.5 c 561.91,155.1 1305.37,249.5 2120.78,249.5 815.43,0 1558.86,-94.4 2120.8,-249.5 h 13.4 c 222.7,372.1 350.8,807.3 350.8,1272.5 0,1370.4 -1110.9,2481.3 -2481.25,2481.3 -1370.41,0 -2481.29,-1110.9 -2481.29,-2481.3 0,-465.2 128.12,-900.4 350.88,-1272.5 h 5.88"
         style="fill:#ffffff;fill-opacity:1;fill-rule:nonzero;stroke:none"
         id="path383" />
      <path
         d="m 6851.3,18228.2 c 48.04,0 76.12,28.7 76.12,66.1 v 1.3 c 0,43 -29.95,66.1 -78,66.1 h -74.24 v -133.5 z m -172.21,220.3 h 178.44 c 104.2,0 167.22,-61.8 167.22,-151 v -1.3 c 0,-101.1 -78.62,-153.5 -176.58,-153.5 h -72.99 v -131 h -96.09 v 436.8"
         style="fill:#ffffff;fill-opacity:1;fill-rule:nonzero;stroke:none"
         id="path385" />
      <path
         d="m 7095.92,18448.5 h 329.44 v -85.5 h -233.97 v -88.6 h 205.89 v -85.5 h -205.89 v -91.7 h 237.09 v -85.5 h -332.56 v 436.8"
         style="fill:#ffffff;fill-opacity:1;fill-rule:nonzero;stroke:none"
         id="path387" />
      <path
         d="m 7764.82,18194.5 -58.02,141.7 -58.03,-141.7 z m -101.07,257.1 h 88.59 l 187.18,-439.9 h -100.45 l -39.93,98 h -184.69 l -39.93,-98 h -97.96 l 187.19,439.9"
         style="fill:#ffffff;fill-opacity:1;fill-rule:nonzero;stroke:none"
         id="path389" />
      <path
         d="m 8006.95,18448.5 h 88.61 l 204.65,-269 v 269 h 94.83 v -436.8 h -81.73 l -211.51,277.7 v -277.7 h -94.85 v 436.8"
         style="fill:#ffffff;fill-opacity:1;fill-rule:nonzero;stroke:none"
         id="path391" />
      <path
         d="m 8493.05,18198.9 v 249.6 h 96.08 v -247.1 c 0,-71.1 35.57,-108 94.22,-108 58.65,0 94.21,35.6 94.21,104.9 v 250.2 h 96.09 V 18202 c 0,-132.3 -74.25,-197.2 -191.55,-197.2 -117.3,0 -189.05,65.6 -189.05,194.1"
         style="fill:#ffffff;fill-opacity:1;fill-rule:nonzero;stroke:none"
         id="path393" />
      <path
         d="m 9073.35,18359.9 h -132.89 v 88.6 h 361.87 v -88.6 h -132.89 v -348.2 h -96.09 v 348.2"
         style="fill:#ffffff;fill-opacity:1;fill-rule:nonzero;stroke:none"
         id="path395" />
      <path
         d="m 9336.69,18075.4 56.78,68 c 39.31,-32.5 80.49,-53.1 130.4,-53.1 39.31,0 63.02,15.6 63.02,41.2 v 1.3 c 0,24.3 -14.98,36.8 -87.97,55.5 -87.98,22.4 -144.76,46.8 -144.76,133.5 v 1.2 c 0,79.3 63.64,131.7 152.87,131.7 63.63,0 117.92,-20 162.22,-55.5 l -49.91,-72.4 c -38.69,26.8 -76.75,43 -113.56,43 -36.82,0 -56.16,-16.8 -56.16,-38 v -1.3 c 0,-28.7 18.72,-38 94.22,-57.4 88.6,-23.1 138.51,-54.9 138.51,-131 v -1.2 c 0,-86.8 -66.14,-135.4 -160.35,-135.4 -66.14,0 -132.9,23.1 -185.31,69.9"
         style="fill:#ffffff;fill-opacity:1;fill-rule:nonzero;stroke:none"
         id="path397" />
      <path
         d="m 8879.79,20278.5 h 0.02 -0.02 c -7.77,19.8 -16.36,39.1 -25.72,58 -40.17,96 -113.28,294.8 -113.28,470 0,186 17.75,415.1 25.92,510.6 1.25,10.7 3.48,45.1 3.48,45.1 0.33,8 0.54,16.1 0.54,24.3 0,331.7 -268.9,600.6 -600.6,600.6 -331.68,0 -600.59,-268.9 -600.59,-600.6 0,-8.2 5.24,-67.3 30.78,-190.2 25.9,-124.7 43.15,-295.6 35.65,-410.4 -7.66,-117.1 -94.16,-326.1 -142.44,-434.9 -11.84,-22.7 -22.58,-46.2 -32.13,-70.2 v 0 0 c -34.53,-87 -53.52,-181.8 -53.52,-281.1 0,-421 341.27,-762.3 762.27,-762.3 420.97,0 762.24,341.3 762.24,762.3 0,98.4 -18.65,192.4 -52.6,278.8"
         style="fill:#f8b30a;fill-opacity:1;fill-rule:nonzero;stroke:none"
         id="path399" />
      <path
         d="m 7977.72,19771.3 c 40.14,-87.2 23.91,-180.4 -36.3,-208.1 -60.18,-27.7 -141.53,20.5 -181.68,107.6 -40.14,87.2 -23.91,180.4 36.29,208.1 60.19,27.7 141.54,-20.5 181.69,-107.6"
         style="fill:#ffffff;fill-opacity:1;fill-rule:nonzero;stroke:none"
         id="path401" />
      <path
         d="m 7900.67,20152.6 c 23.95,-52 14.26,-107.5 -21.62,-124.1 -35.9,-16.5 -84.39,12.2 -108.34,64.2 -23.92,52 -14.25,107.5 21.64,124.1 35.88,16.5 84.4,-12.2 108.32,-64.2"
         style="fill:#ffffff;fill-opacity:1;fill-rule:nonzero;stroke:none"
         id="path403" />
      <path
         d="m 8151.88,19971.1 c 26.45,-57.4 15.77,-118.8 -23.88,-137 -39.63,-18.3 -93.19,13.5 -119.63,70.9 -26.45,57.4 -15.74,118.7 23.91,137 39.62,18.2 93.18,-13.5 119.6,-70.9"
         style="fill:#ffffff;fill-opacity:1;fill-rule:nonzero;stroke:none"
         id="path405" />
      <path
         d="m 18839.3,20025 c 0,-1592.9 -1291.3,-2884.3 -2884.3,-2884.3 -1592.9,0 -2884.2,1291.4 -2884.2,2884.3 0,1593 1291.3,2884.3 2884.2,2884.3 1593,0 2884.3,-1291.3 2884.3,-2884.3"
         style="fill:#f8b30a;fill-opacity:1;fill-rule:nonzero;stroke:none"
         id="path407" />
      <path
         d="m 15952.1,19006.3 c 821.7,0 1570.4,-95.9 2133.8,-253.1 222.4,371.9 350.4,806.9 350.4,1271.8 0,1370.4 -1110.9,2481.3 -2481.3,2481.3 -1370.3,0 -2481.2,-1110.9 -2481.2,-2481.3 0,-464.3 127.6,-898.8 349.6,-1270.4 562.8,156.4 1309.5,251.7 2128.7,251.7"
         style="fill:#ffffff;fill-opacity:1;fill-rule:nonzero;stroke:none"
         id="path409" />
      <path
         d="m 14199.1,18127.4 56.8,68 c 39.3,-32.5 80.5,-53.1 130.4,-53.1 39.3,0 63,15.6 63,41.2 v 1.3 c 0,24.3 -15,36.8 -88,55.5 -87.9,22.5 -144.7,46.8 -144.7,133.5 v 1.3 c 0,79.2 63.6,131.6 152.9,131.6 63.6,0 117.9,-20 162.2,-55.5 l -49.9,-72.4 c -38.7,26.8 -76.8,43.1 -113.6,43.1 -36.8,0 -56.1,-16.9 -56.1,-38.1 v -1.3 c 0,-28.7 18.7,-38 94.2,-57.4 88.6,-23 138.5,-54.9 138.5,-131 v -1.2 c 0,-86.8 -66.2,-135.4 -160.4,-135.4 -66.1,0 -132.9,23.1 -185.3,69.9"
         style="fill:#ffffff;fill-opacity:1;fill-rule:nonzero;stroke:none"
         id="path411" />
      <path
         d="m 14628.4,18500.5 h 96.1 v -172.9 h 177.2 v 172.9 h 96.1 v -436.8 h -96.1 v 175.3 h -177.2 v -175.3 h -96.1 v 436.8"
         style="fill:#ffffff;fill-opacity:1;fill-rule:nonzero;stroke:none"
         id="path413" />
      <path
         d="m 15102.7,18500.5 h 329.4 v -85.5 h -234 v -88.6 h 205.9 v -85.5 h -205.9 v -91.7 h 237.1 v -85.5 h -332.5 v 436.8"
         style="fill:#ffffff;fill-opacity:1;fill-rule:nonzero;stroke:none"
         id="path415" />
      <path
         d="m 15520.7,18500.5 h 96.1 v -349.4 h 217.8 v -87.4 h -313.9 v 436.8"
         style="fill:#ffffff;fill-opacity:1;fill-rule:nonzero;stroke:none"
         id="path417" />
      <path
         d="m 15907,18500.5 h 96.1 v -349.4 h 217.7 v -87.4 H 15907 v 436.8"
         style="fill:#ffffff;fill-opacity:1;fill-rule:nonzero;stroke:none"
         id="path419" />
      <path
         d="m 16293.2,18500.5 h 332.6 v -87.4 h -236.5 v -92.9 h 208.4 v -87.4 h -208.4 v -169.1 h -96.1 v 436.8"
         style="fill:#ffffff;fill-opacity:1;fill-rule:nonzero;stroke:none"
         id="path421" />
      <path
         d="m 16706.9,18500.5 h 96.1 v -436.8 h -96.1 v 436.8"
         style="fill:#ffffff;fill-opacity:1;fill-rule:nonzero;stroke:none"
         id="path423" />
      <path
         d="m 16882.3,18127.4 56.8,68 c 39.3,-32.5 80.5,-53.1 130.4,-53.1 39.3,0 63,15.6 63,41.2 v 1.3 c 0,24.3 -15,36.8 -88,55.5 -88,22.5 -144.7,46.8 -144.7,133.5 v 1.3 c 0,79.2 63.6,131.6 152.8,131.6 63.7,0 117.9,-20 162.2,-55.5 l -49.9,-72.4 c -38.6,26.8 -76.7,43.1 -113.5,43.1 -36.8,0 -56.2,-16.9 -56.2,-38.1 v -1.3 c 0,-28.7 18.7,-38 94.2,-57.4 88.6,-23 138.5,-54.9 138.5,-131 v -1.2 c 0,-86.8 -66.1,-135.4 -160.3,-135.4 -66.1,0 -132.9,23.1 -185.3,69.9"
         style="fill:#ffffff;fill-opacity:1;fill-rule:nonzero;stroke:none"
         id="path425" />
      <path
         d="m 17311.6,18500.5 h 96.1 v -172.9 h 177.2 v 172.9 h 96.1 v -436.8 h -96.1 v 175.3 h -177.2 v -175.3 h -96.1 v 436.8"
         style="fill:#ffffff;fill-opacity:1;fill-rule:nonzero;stroke:none"
         id="path427" />
      <path
         d="m 15637,20004.7 c -1.2,3.8 -2,5.5 -2.3,7.3 -2.6,20.6 -12.5,37.5 -25.9,52.9 -2.1,2.4 -3.5,8.6 -2,10.2 24.9,27.7 38.6,62 55.3,94.5 6.8,12.9 14.1,25.8 23,37.4 12.1,15.6 29.6,21.6 49.1,23.3 32.7,2.8 64.8,-1.4 96.9,-6.4 10.8,-1.7 21.7,-2.9 32.6,-3.5 2.8,-0.2 5.7,2.6 8.5,4.1 -2.2,2.3 -4,6 -6.6,6.7 -48.1,13.7 -96.5,25.8 -147.2,20.7 -36.9,-3.6 -61.5,-26.1 -79.2,-56.5 -17.7,-30.3 -34,-61.3 -50.9,-92 -6.6,-11.8 -6.6,-11.7 -17.5,-3.7 -11.6,8.6 -23.3,17.1 -35.1,25.4 -4.3,3.1 -6.1,5.7 -2.6,11 30.5,44.9 61.2,89.7 90.8,135.3 11.6,17.9 27.8,26.7 47.4,31.8 32.6,8.5 65.9,7 98.9,5.2 34.9,-1.8 154.8,-7.6 179.8,-6.7 2.8,0.1 5.5,1.2 8.3,1.8 0.2,1 0.6,2 0.9,3.1 -3.6,1.1 -7,3 -10.6,3.4 -20.2,1.9 -40.4,3.2 -60.5,5.1 -51.3,4.9 -102.4,10.4 -153.6,14.7 -15.7,1.4 -31.6,0.5 -47.3,-0.3 -45,-2.4 -79.7,-22.2 -105.4,-60 -24.4,-35.9 -51.5,-69.9 -77.1,-104.9 -5.6,-7.8 -10.1,-9.5 -17.2,-2 -7.7,8.2 -16.1,15.7 -24.2,23.6 -4,3.7 -4.5,7.2 0,11.2 44.4,39.4 74.1,90.2 107.7,137.9 10.4,14.8 20,30 30.5,44.6 18.2,25.5 43.7,34.8 73.7,28.5 37.7,-7.9 75,-17.9 112.5,-26.8 9,-2.2 18,-3.6 27.5,-5.4 1.7,11.3 -6.2,12.7 -12,14.4 -41.7,12.8 -83.5,25.9 -125.7,37.1 -12.9,3.5 -27.4,2.9 -41,1.8 -19.5,-1.6 -36.9,-10.1 -50.2,-24.4 -24.2,-26.1 -111.7,-128.1 -132.3,-152 -4.2,-5 -9.4,-9.2 -14.8,-14.3 -5.2,12.9 -10.3,24.5 -14.6,36.5 -0.6,2 1.7,6.1 3.7,7.8 52.3,41.2 91.8,94.4 137.1,142.2 21.9,23.1 44.4,45.7 68.5,66.3 20.5,17.5 45.4,25.3 73,18.5 27.4,-6.8 54.7,-13.8 82,-21 10.3,-2.7 20.5,-6.1 30.8,-9.2 0.7,1.1 1.4,2.3 2.2,3.4 -2.7,2.5 -4.9,5.8 -8,7.3 -38.7,19.5 -79.3,33.4 -122.3,39.7 -31.9,4.6 -58.6,-9.5 -83.5,-26.6 -42.2,-28.9 -171.3,-156.5 -200.7,-183.4 -11.3,-10.4 -14.3,-9.1 -19.1,5.8 -0.1,0.7 -0.3,1.3 -0.5,1.9 -5.9,19.9 -4.6,18.4 10.8,31.7 26.4,23 144.4,150.2 178.5,189.2 41.3,47 91.5,57.9 150.3,38.6 27.1,-8.9 55.1,-15.2 82.8,-22.2 3.2,-0.8 7.2,1.6 10.9,2.6 -2.8,2.3 -5.2,5.6 -8.3,6.8 -35.5,13 -70.6,28 -107.1,38.1 -54.5,15.2 -105.3,5.7 -146.2,-35.5 -39,-39.3 -154.3,-160.3 -174.5,-180.1 -2.2,-2.1 -5,-3.5 -10.8,-7.5 -0.1,23 -0.1,42.7 -0.3,62.5 -0.2,19.9 7.4,35.5 21.4,50.2 43,44.8 65.5,100.6 83.6,159 19.5,62.9 51.4,117.7 105.2,158.9 71,54.5 134.5,116.8 185.6,190.8 47.4,68.6 111.2,116.5 186.8,149 52.8,22.7 325.9,134.1 402.4,182.2 28.3,17.8 93.2,63.3 95.2,67.2 -4.4,0.9 -9.6,3.9 -13,2.5 -19,-7.8 -38.1,-15.6 -56.2,-25.3 -91.1,-48.6 -306.7,-139.1 -319.8,-143.6 -46.8,-15.9 -93.3,-32.7 -140.3,-47.9 -19.5,-6.3 -40,-9.3 -60.1,-13.6 -3.3,-0.7 -6.9,-0.3 -13.2,-0.5 12.5,12 22.8,22.6 34,32.3 6.7,5.8 15.1,9.7 22.2,15.2 2.9,2.3 4.1,6.8 6.1,10.3 -3.8,-0.2 -8,0.5 -11.3,-0.8 -14.7,-5.6 -29.1,-11.9 -43.8,-17.7 -3.7,-1.4 -7.8,-1.7 -11.8,-2.6 -0.8,0.9 -1.6,1.7 -2.4,2.5 5.7,7.4 49.2,45.4 66.3,55.4 20.1,11.8 41.4,21.8 62,32.8 3.5,1.8 6.4,4.7 9.5,7.1 -0.4,1.3 -0.9,2.6 -1.3,3.9 -39.3,-7 -78.6,-14 -117.9,-21.1 -0.4,1 -0.7,1.9 -1.1,2.9 2.8,1.4 177.2,72.1 263.7,100.5 72.9,23.9 142,56.9 211.8,88.2 33.4,15 67.8,27.9 101,43.4 44,20.5 87.6,42 130.7,64.3 28.4,14.8 55.8,31.8 83.6,47.9 2.5,1.5 4.4,4.1 6.6,6.2 -0.3,1.1 -0.6,2.1 -0.8,3.2 -5.3,-0.6 -10.7,-0.2 -15.6,-1.8 -12.9,-4.1 -25.6,-8.6 -38.1,-13.8 -65.7,-26.9 -542.7,-213.4 -604.6,-232.9 -53.3,-16.7 -168,-43.1 -171.3,-41.9 5.2,2 10.3,4.1 15.6,6 90.7,32.7 181.5,65.3 272.3,98 79.8,28.9 161.1,54.4 239.1,87.6 97.2,41.4 194.7,82.8 287,135 39.1,22.1 80,41.3 119.3,63.2 37.3,20.9 73.5,43.6 110.1,65.7 2.7,1.7 4.1,5.5 6.1,8.4 -3.6,0.8 -7.8,3.3 -10.8,2.2 -15.4,-5.3 -31,-10.8 -45.8,-17.7 -65.5,-30.7 -131.2,-60.9 -196,-93.1 -57.8,-28.8 -118.4,-50.5 -179.1,-71.5 -93.9,-32.6 -189,-61.4 -282.8,-94.3 -110.3,-38.7 -223.4,-67.5 -335.5,-100.1 -134.1,-38.9 -267.1,-81.1 -395.7,-136.2 -105.8,-45.4 -303.9,-170.3 -305.8,-171.8 -60.3,-43.2 -359.7,-257.3 -424.9,-562.2 -20.7,-96.6 -36.4,-191.5 -15.4,-289 6.5,-29.8 17.4,-58.6 26.4,-87.7 25.8,-82.9 173.7,-329 211.3,-372.7 35.8,-41.5 74.8,-79.3 116.3,-115.3 138.4,-120.3 331.7,-194.9 391.3,-214.5 114.9,-37.8 232.5,-47.9 352.6,-38.4 123.1,9.9 242.9,33.3 356.3,83.1 116.9,51.4 215.7,127.5 295.1,227.4 42,52.9 79.5,109.2 121.1,162.3 50.3,64.3 243.8,290.6 292.2,337 54.9,52.8 111.1,104.9 178.3,142.3 28.3,15.8 58.3,28.5 87.6,42.3 9.7,4.7 11.1,9.5 2.4,15.8 -6,4.3 -13.4,7.2 -20.5,9 -122.6,30.5 -246.9,37.3 -372.5,27.4 -49.6,-4 -98.4,-12.2 -145.3,-28.7 -18.4,-6.4 -35.7,-16.2 -52.8,-25.7 -25.2,-14 -35.7,-39.8 -48,-63.7 -26.9,-52.3 -43,-108.7 -62.5,-163.8 -21.1,-59.4 -42.1,-118.9 -66.7,-176.9 -44.6,-105.6 -124.2,-176.4 -228.8,-220.3 -70.3,-29.5 -215.4,-62.4 -351.7,60.1 -10.2,9.2 -24.1,13.4 -36,20.3 -5.9,3.4 -6.3,7.4 -1.6,12.3 27.6,28.6 39.9,64.8 49.8,102 4,14.9 14.3,21.2 27.9,24.6 29,7.2 57.4,3.3 85.9,-3.3 4.5,-1.1 13.6,-0.6 13.9,0.8 2.1,8.3 -6.2,8.2 -11,9.9 -29.6,10.8 -60,13.8 -91.1,8.6 -21.6,-3.5 -36.8,-15.2 -46.5,-35 -14.8,-30.3 -29.4,-60.8 -56,-83.4 -6.6,-5.7 -10.6,-5.9 -16.9,-0.5 -21.7,18.5 -22.2,18.7 -5,40.9 20.9,27 46.8,109.4 49.7,118.9 3.9,12.3 12.3,20.4 25,20.9 26.7,1 53.3,1.7 79.9,0.8 28.6,-1 57.1,-4.4 85.7,-6.1 7.6,-0.4 19.4,-3.5 20.4,8.3 0.8,10.8 -11,10 -18.3,11.3 -49.2,8.3 -98.6,14.9 -148.7,13.8 -48.5,-1.1 -70.2,-16 -85.8,-62.3 -10.3,-30.7 -24.4,-58.7 -45.5,-83.2 -2.1,-2.3 -4.1,-4.7 -7.6,-8.7 v 0"
         style="fill:#f8b30a;fill-opacity:1;fill-rule:nonzero;stroke:none"
         id="path429" />
      <path
         d="m 15439.2,21167 c -50.6,-48.6 -31.9,-119.8 29.4,-140.1 32.8,-10.8 63.7,-9.3 89.3,16.8 27.6,28.1 40.7,61.8 30.3,101 -8,29.9 -29.7,46.1 -60.2,49.4 -36.4,3.9 -67.8,-8.4 -88.8,-27.1 v 0"
         style="fill:#ffffff;fill-opacity:1;fill-rule:nonzero;stroke:none"
         id="path431" />
      <path
         d="m 34409.2,20025 c 0,-1592.9 -1291.4,-2884.3 -2884.3,-2884.3 -1593,0 -2884.3,1291.4 -2884.3,2884.3 0,1593 1291.3,2884.3 2884.3,2884.3 1592.9,0 2884.3,-1291.3 2884.3,-2884.3"
         style="fill:#f8b30a;fill-opacity:1;fill-rule:nonzero;stroke:none"
         id="path433"
         inkscape:export-filename="../../Documents/GitHub/pucciaria1.0/img/allergeni/maiale.svg.svg"
         inkscape:export-xdpi="11.982214"
         inkscape:export-ydpi="11.982214" />
      <path
         d="m 31504.5,19001.8 c 815.2,0 1558.4,-94.3 2120.2,-249.3 h 30.6 c 222.7,372.1 350.8,807.3 350.8,1272.5 0,1370.4 -1110.9,2481.3 -2481.2,2481.3 -1370.4,0 -2481.3,-1110.9 -2481.3,-2481.3 0,-464.2 127.6,-898.6 349.5,-1270.2 560.8,153.6 1300.5,247 2111.4,247"
         style="fill:#ffffff;fill-opacity:1;fill-rule:nonzero;stroke:none"
         id="path435" />
      <path
         d="m 30822.5,18280.2 c 48.1,0 76.2,28.7 76.2,66.2 v 1.2 c 0,43.1 -30,66.1 -78,66.1 h -74.3 v -133.5 z m -172.2,220.3 h 178.5 c 104.2,0 167.2,-61.8 167.2,-151 v -1.3 c 0,-101.1 -78.6,-153.5 -176.6,-153.5 h -73 v -131 h -96.1 v 436.8"
         style="fill:#ffffff;fill-opacity:1;fill-rule:nonzero;stroke:none"
         id="path437" />
      <path
         d="m 31411.6,18280.8 v 1.3 c 0,74.9 -54.9,137.3 -132.3,137.3 -77.4,0 -131,-61.2 -131,-136.1 v -1.2 c 0,-74.9 54.9,-137.3 132.2,-137.3 77.4,0 131.1,61.2 131.1,136 z m -363.8,0 v 1.3 c 0,124.1 98,225.8 232.7,225.8 134.8,0 231.5,-100.4 231.5,-224.6 v -1.2 c 0,-124.2 -97.9,-225.9 -232.7,-225.9 -134.8,0 -231.5,100.5 -231.5,224.6"
         style="fill:#ffffff;fill-opacity:1;fill-rule:nonzero;stroke:none"
         id="path439" />
      <path
         d="m 31791,18288.3 c 46.8,0 73.6,25 73.6,61.8 v 1.2 c 0,41.2 -28.7,62.4 -75.5,62.4 h -95.4 v -125.4 z m -193.4,212.2 h 199.6 c 55.6,0 98.6,-15.6 127.3,-44.3 24.3,-24.4 37.4,-58.7 37.4,-99.9 v -1.2 c 0,-70.5 -38,-114.8 -93.6,-135.4 l 106.7,-156 h -112.3 l -93.6,139.8 h -75.4 v -139.8 h -96.1 v 436.8"
         style="fill:#ffffff;fill-opacity:1;fill-rule:nonzero;stroke:none"
         id="path441" />
      <path
         d="m 32048.7,18500.5 h 96.1 v -190.9 l 177.2,190.9 h 116 l -177.8,-185.3 186,-251.5 h -115.5 l -135.4,185.9 -50.5,-52.4 v -133.5 h -96.1 v 436.8"
         style="fill:#ffffff;fill-opacity:1;fill-rule:nonzero;stroke:none"
         id="path443" />
      <path
         d="m 32816.7,21251.8 c -6.1,17.2 -4.5,28.9 0.2,31.5 1.9,1 4.6,1.5 7.8,1.1 6.7,-0.8 15.6,-5.3 23.7,-15.7 21.2,-27.1 32.3,-56.1 31.2,-80.3 -30.1,14.2 -53.5,37.3 -62.9,63.4 z m 279.3,-31.9 c -16.8,14.5 -42.2,12.5 -56.6,-4.3 -24.7,-28.8 -55,-38.8 -80.3,-41.3 5.4,46.5 -11.2,97.7 -47.4,144 -34.5,44.1 -90.7,59 -133.5,35.4 -32.1,-17.7 -61,-62 -37.2,-128.9 14.8,-41.6 47.2,-77.4 89.1,-101.2 -9.1,-4.9 -19.4,-9.4 -31,-13.5 -11.1,-4 -22.2,-6.8 -33.2,-9 -123.9,160.3 -318,263.7 -536.3,263.7 l -1387.7,-79.7 c -135.5,0 -284.1,-87.4 -425.9,-201.8 -40.8,42.3 -98.4,80.4 -179.9,106.2 0,0 -18.7,-71.8 -15.5,-153.6 -25.2,18.1 -56.3,34.1 -94.7,46.3 0,0 -40.9,-156.8 31.6,-236.1 -139.7,-139.4 -227,-264.4 -288.5,-290.3 l -101.9,28 -13.7,-165.5 c 0,0 146.8,-248.1 689.4,-248.6 v 0 c 49.7,-2.5 99.8,-3.5 149.2,-4 0,0 -22.5,-430.9 -55.6,-570.3 -7.6,-32.2 -47.8,-123.5 -47.8,-123.5 h 183.3 l 209.3,479.2 c 0,0 -14.6,-268.7 -35.3,-355.7 -7.7,-32.2 -47.8,-123.5 -47.8,-123.5 h 183.3 l 274.9,629.6 c 367,-134 600.1,-109.7 852.9,-67.3 0,0 62,-252.9 60.3,-313.7 -2.7,-88.5 -113.9,-248.6 -113.9,-248.6 h 227.2 c 0,0 76.5,363 79.7,486.2 0.8,32.4 -14.4,128.9 -14.4,128.9 31.5,8.9 48.9,14.8 48.9,14.8 0,0 84.2,-289.1 81.9,-367.6 -2.6,-88.6 -113.8,-262.3 -113.8,-262.3 h 227.1 c 0,0 40.4,258.7 56.5,344.4 29.8,159.4 1.5,336.6 1.5,336.6 179.7,83.9 256.9,267.9 256.9,534.5 0,125.2 -34.2,242.5 -93.4,343.1 4.1,1.3 8.2,2.4 12.4,3.9 45.8,16.3 76.1,37.9 96,59.9 69.1,-7 134.6,18 178.2,68.9 14.5,16.8 12.6,42.2 -4.3,56.7"
         style="fill:#f8b30a;fill-opacity:1;fill-rule:nonzero;stroke:none"
         id="path445" />
      <path
         d="m 30372.6,20747.5 c 0,-25.2 -20.4,-45.7 -45.7,-45.7 -25.2,0 -45.7,20.5 -45.7,45.7 0,25.3 20.5,45.7 45.7,45.7 25.3,0 45.7,-20.4 45.7,-45.7"
         style="fill:#ffffff;fill-opacity:1;fill-rule:nonzero;stroke:none"
         id="path447" />
      <path
         d="m 26624.2,19973 c 0,-1592.9 -1291.3,-2884.3 -2884.2,-2884.3 -1593,0 -2884.3,1291.4 -2884.3,2884.3 0,1593 1291.3,2884.3 2884.3,2884.3 1592.9,0 2884.2,-1291.3 2884.2,-2884.3"
         style="fill:#f8b30a;fill-opacity:1;fill-rule:nonzero;stroke:none"
         id="path449" />
      <path
         d="m 23740,18978.1 c 826.3,0 1578.7,-96.9 2143.2,-255.7 214.8,367.2 338,794.5 338,1250.6 0,1370.4 -1110.9,2481.3 -2481.2,2481.3 -1370.4,0 -2481.3,-1110.9 -2481.3,-2481.3 0,-456.1 123.2,-883.4 338,-1250.6 564.5,158.8 1316.9,255.7 2143.3,255.7"
         style="fill:#ffffff;fill-opacity:1;fill-rule:nonzero;stroke:none"
         id="path451" />
      <path
         d="m 22891.9,18448.5 h 103.6 l 114.8,-184.7 114.8,184.7 h 103.6 v -436.8 h -95.5 v 285.1 l -122.9,-186.5 h -2.5 l -121.7,184.7 v -283.3 h -94.2 v 436.8"
         style="fill:#ffffff;fill-opacity:1;fill-rule:nonzero;stroke:none"
         id="path453" />
      <path
         d="m 23433.6,18448.5 h 329.4 v -85.5 h -234 v -88.6 h 205.9 v -85.5 H 23529 v -91.7 h 237.1 v -85.5 h -332.5 v 436.8"
         style="fill:#ffffff;fill-opacity:1;fill-rule:nonzero;stroke:none"
         id="path455" />
      <path
         d="m 24102.5,18194.5 -58.1,141.7 -58,-141.7 z m -101.1,257.1 h 88.6 l 187.2,-439.9 h -100.5 l -39.9,98 h -184.7 l -39.9,-98 h -98 l 187.2,439.9"
         style="fill:#ffffff;fill-opacity:1;fill-rule:nonzero;stroke:none"
         id="path457" />
      <path
         d="m 24390.1,18359.9 h -132.9 v 88.6 h 361.9 v -88.6 h -132.9 v -348.2 h -96.1 v 348.2"
         style="fill:#ffffff;fill-opacity:1;fill-rule:nonzero;stroke:none"
         id="path459" />
      <path
         d="m 22639.2,21203.1 c 136.7,-158.1 330.7,-70.5 330.7,-70.5 l 332.5,-359.7 25.1,-27.2 332.5,-359.7 c 0,0 -102.6,-186.6 44.3,-335.2 145.6,-147.3 412.9,-67.2 431.6,165.4 233.4,0.5 334.3,260.7 198.9,417.4 -136.7,158.1 -330.6,70.5 -330.6,70.5 l -332.6,359.8 -25,27.1 -332.6,359.8 c 0,0 102.6,186.4 -44.3,335.1 -145.5,147.3 -412.9,67.2 -431.7,-165.4 -233.3,-0.5 -334.2,-260.7 -198.8,-417.4"
         style="fill:#ffffff;fill-opacity:1;fill-rule:nonzero;stroke:none"
         id="path461" />
      <path
         d="m 22639.2,21203.1 c 136.7,-158.1 330.7,-70.5 330.7,-70.5 l 332.5,-359.7 25.1,-27.2 332.5,-359.7 c 0,0 -102.6,-186.6 44.3,-335.2 145.6,-147.3 412.9,-67.2 431.6,165.4 233.4,0.5 334.3,260.7 198.9,417.4 -136.7,158.1 -330.6,70.5 -330.6,70.5 l -332.6,359.8 -25,27.1 -332.6,359.8 c 0,0 102.6,186.4 -44.3,335.1 -145.5,147.3 -412.9,67.2 -431.7,-165.4 -233.3,-0.5 -334.2,-260.7 -198.8,-417.4 z"
         style="fill:#f8b30a;fill-opacity:1;stroke:#2f3031;stroke-width:83.1951;stroke-linecap:butt;stroke-linejoin:miter;stroke-miterlimit:10;stroke-dasharray:none;stroke-opacity:1"
         id="path463" />
      <path
         d="m 23493.4,21106.5 c -114.2,4.5 -110.1,-71 -110.1,-71 0,0 -74.9,10 -79.4,-104.2 0,0 -127.7,9.6 -80.1,-68.4 0,0 175.4,-301.3 197.1,-620.2 18.9,-276.8 67.8,-509.4 224.9,-681.5 267.7,-293.3 769.4,-274.9 1084.8,16.6 315.4,291.5 387.1,758.1 101.8,1080.2 -154.5,174.5 -387.3,237.1 -661.7,277.7 -316.2,46.7 -602.8,245.3 -602.8,245.3 -74.1,53.6 -74.5,-74.5 -74.5,-74.5"
         style="fill:#f8b30a;fill-opacity:1;fill-rule:nonzero;stroke:none"
         id="path465" />
      <path
         d="m 11054.4,5774.7 c 0,-1592.9 -1291.32,-2884.2 -2884.25,-2884.2 -1592.97,0 -2884.3,1291.3 -2884.3,2884.2 0,1593 1291.33,2884.3 2884.3,2884.3 1592.93,0 2884.25,-1291.3 2884.25,-2884.3"
         style="fill:#f8b30a;fill-opacity:1;fill-rule:nonzero;stroke:none"
         id="path467"
         inkscape:export-filename="../../Documents/GitHub/pucciaria1.0/img/allergeni/gluten.svg"
         inkscape:export-xdpi="11.982214"
         inkscape:export-ydpi="11.982214" />
      <path
         d="m 8119.83,4752.8 c 817.21,0 1562.17,-94.9 2124.47,-250.6 h 56.3 c 222.7,372.1 350.8,807.3 350.8,1272.5 0,1370.4 -1110.88,2481.3 -2481.25,2481.3 -1370.41,0 -2481.29,-1110.9 -2481.29,-2481.3 0,-460.8 125.82,-892.3 344.74,-1262.1 557.68,149.5 1287.43,240.2 2086.23,240.2"
         style="fill:#ffffff;fill-opacity:1;fill-rule:nonzero;stroke:none"
         id="path469" />
      <path
         d="m 6878.14,3991.6 v 1.2 c 0,124.2 96.71,225.9 228.98,225.9 78.62,0 126.03,-21.2 171.58,-59.9 l -60.52,-73 c -33.69,28 -63.64,44.3 -114.18,44.3 -69.88,0 -125.41,-61.8 -125.41,-136 v -1.3 c 0,-79.9 54.91,-138.5 132.27,-138.5 34.95,0 66.14,8.7 90.47,26.2 v 62.4 h -96.71 v 83 h 189.68 v -189.7 c -44.92,-38.1 -106.69,-69.2 -186.56,-69.2 -136.01,0 -229.6,95.4 -229.6,224.6"
         style="fill:#ffffff;fill-opacity:1;fill-rule:nonzero;stroke:none"
         id="path471" />
      <path
         d="m 7386.69,4211.2 h 96.09 v -349.4 h 217.75 v -87.4 h -313.84 v 436.8"
         style="fill:#ffffff;fill-opacity:1;fill-rule:nonzero;stroke:none"
         id="path473" />
      <path
         d="m 7753.6,3961.6 v 249.6 h 96.09 v -247.1 c 0,-71.1 35.56,-107.9 94.22,-107.9 58.64,0 94.21,35.5 94.21,104.8 v 250.2 h 96.08 v -246.5 c 0,-132.2 -74.24,-197.1 -191.54,-197.1 -117.3,0 -189.06,65.5 -189.06,194"
         style="fill:#ffffff;fill-opacity:1;fill-rule:nonzero;stroke:none"
         id="path475" />
      <path
         d="m 8333.91,4122.6 h -132.89 v 88.6 h 361.88 v -88.6 H 8430 v -348.2 h -96.09 v 348.2"
         style="fill:#ffffff;fill-opacity:1;fill-rule:nonzero;stroke:none"
         id="path477" />
      <path
         d="M 8636.56,4211.2 H 8966 v -85.5 h -233.98 v -88.6 h 205.9 v -85.5 h -205.9 v -91.7 h 237.1 v -85.5 h -332.56 v 436.8"
         style="fill:#ffffff;fill-opacity:1;fill-rule:nonzero;stroke:none"
         id="path479" />
      <path
         d="m 9054.64,4211.2 h 88.6 l 204.65,-268.9 v 268.9 h 94.83 v -436.8 h -81.73 l -211.51,277.7 v -277.7 h -94.84 v 436.8"
         style="fill:#ffffff;fill-opacity:1;fill-rule:nonzero;stroke:none"
         id="path481" />
      <path
         d="m 8925.91,6762.5 c -373.2,0 -680.86,-279.6 -725.47,-640.7 v 534.7 c 401.17,3.1 725.47,329.2 725.47,731.1 -373.2,0 -680.86,-279.7 -725.47,-640.7 v 203.2 c 254.77,287.1 244.75,726.7 -30.29,1001.7 -275.02,-275 -285.04,-714.6 -30.3,-1001.7 v -203.3 c -44.57,361.1 -352.26,640.8 -725.47,640.8 0,-401.9 324.28,-728 725.47,-731.1 v -534.8 c -44.57,361.2 -352.26,640.8 -725.47,640.8 0,-401.9 324.28,-727.9 725.47,-731.1 v -534.7 c -44.57,361.1 -352.26,640.8 -725.47,640.8 v 0 c 0,-401.9 324.28,-728 725.47,-731.1 v -337.8 c 0,-33.6 13.64,-53.2 30.3,-53.2 16.66,0 30.29,19.6 30.29,53.2 v 337.8 c 401.17,3.1 725.47,329.2 725.47,731.1 v 0 c -373.2,0 -680.86,-279.6 -725.47,-640.7 v 534.6 c 401.17,3.2 725.47,329.2 725.47,731.1"
         style="fill:#f8b30a;fill-opacity:1;fill-rule:nonzero;stroke:none"
         id="path483" />
      <path
         d="M 18839.3,5755.3 C 18839.3,4162.3 17548,2871 15955,2871 c -1592.9,0 -2884.2,1291.3 -2884.2,2884.3 0,1592.9 1291.3,2884.3 2884.2,2884.3 1593,0 2884.3,-1291.4 2884.3,-2884.3"
         style="fill:#f8b30a;fill-opacity:1;fill-rule:nonzero;stroke:none"
         id="path485"
         inkscape:export-filename="../../Documents/GitHub/pucciaria1.0/img/allergeni/uova.svg"
         inkscape:export-xdpi="11.982214"
         inkscape:export-ydpi="11.982214" />
      <path
         d="m 15935.3,4742.3 c 830.2,0 1585.8,-97.8 2151.1,-258 222.1,371.8 349.9,806.4 349.9,1271 0,1370.3 -1110.9,2481.2 -2481.3,2481.2 -1370.3,0 -2481.2,-1110.9 -2481.2,-2481.2 0,-460.7 125.6,-891.8 344.3,-1261.5 561.5,154.5 1303.5,248.5 2117.2,248.5"
         style="fill:#ffffff;fill-opacity:1;fill-rule:nonzero;stroke:none"
         id="path487" />
      <path
         d="m 15309.2,4230.7 h 329.4 v -85.5 h -233.9 v -88.6 h 205.9 v -85.5 h -205.9 v -91.7 h 237.1 v -85.5 h -332.6 v 436.8"
         style="fill:#ffffff;fill-opacity:1;fill-rule:nonzero;stroke:none"
         id="path489" />
      <path
         d="m 15707.9,4011.1 v 1.2 c 0,124.2 96.8,225.9 229,225.9 78.6,0 126.1,-21.2 171.6,-59.9 l -60.5,-73 c -33.7,28 -63.7,44.3 -114.2,44.3 -69.9,0 -125.4,-61.8 -125.4,-136 v -1.3 c 0,-79.9 54.9,-138.5 132.3,-138.5 34.9,0 66.1,8.7 90.4,26.2 v 62.4 h -96.7 v 83 h 189.7 v -189.7 c -44.9,-38.1 -106.7,-69.3 -186.6,-69.3 -136,0 -229.6,95.5 -229.6,224.7"
         style="fill:#ffffff;fill-opacity:1;fill-rule:nonzero;stroke:none"
         id="path491" />
      <path
         d="m 16197.2,4011.1 v 1.2 c 0,124.2 96.7,225.9 228.9,225.9 78.7,0 126.1,-21.2 171.6,-59.9 l -60.5,-73 c -33.7,28 -63.6,44.3 -114.2,44.3 -69.9,0 -125.4,-61.8 -125.4,-136 v -1.3 c 0,-79.9 54.9,-138.5 132.3,-138.5 34.9,0 66.1,8.7 90.5,26.2 v 62.4 h -96.8 v 83 h 189.7 v -189.7 c -44.9,-38.1 -106.7,-69.3 -186.5,-69.3 -136.1,0 -229.6,95.5 -229.6,224.7"
         style="fill:#ffffff;fill-opacity:1;fill-rule:nonzero;stroke:none"
         id="path493" />
      <path
         d="m 15955,5047.3 c -439.6,0 -949.5,264.8 -1062.1,1007.9 -65.4,432.2 125.2,1022.7 453.3,1404.3 192.5,223.9 403,342.2 608.8,342.2 205.8,0 416.4,-118.3 608.9,-342.2 328.1,-381.5 518.7,-972.1 453.3,-1404.3 -112.6,-743.1 -622.5,-1007.9 -1062.2,-1007.9"
         style="fill:#2f3031;fill-opacity:1;fill-rule:evenodd;stroke:none"
         id="path495" />
      <path
         d="m 15955,5159.2 c -404.3,0 -850.3,245.5 -951.4,912.7 -99.1,654.1 435,1617.9 951.4,1617.9 516.5,0 1050.6,-963.8 951.5,-1617.9 -101.1,-667.2 -547.1,-912.7 -951.5,-912.7"
         style="fill:#f8b30a;fill-opacity:1;fill-rule:evenodd;stroke:none"
         id="path497" />
      <path
         d="m 16510.9,6118.5 c 0,-307 -248.8,-555.9 -555.9,-555.9 -307,0 -555.9,248.9 -555.9,555.9 0,307 248.9,555.9 555.9,555.9 307.1,0 555.9,-248.9 555.9,-555.9"
         style="fill:#f8b30a;fill-opacity:1;fill-rule:nonzero;stroke:none"
         id="path499" />
      <path
         d="m 34409.1,5755.3 c 0,-1593 -1291.3,-2884.3 -2884.2,-2884.3 -1593,0 -2884.3,1291.3 -2884.3,2884.3 0,1592.9 1291.3,2884.3 2884.3,2884.3 1592.9,0 2884.2,-1291.4 2884.2,-2884.3"
         style="fill:#f8b30a;fill-opacity:1;fill-rule:nonzero;stroke:none"
         id="path501"
         inkscape:export-filename="../../Documents/GitHub/pucciaria1.0/img/allergeni/grassi-idrogenati.svg"
         inkscape:export-xdpi="11.982214"
         inkscape:export-ydpi="11.982214" />
      <path
         d="m 31517.8,4746.7 c 825.9,0 1578,-96.9 2142.4,-255.6 219.7,370.2 345.9,802.4 345.9,1264.2 0,1370.3 -1110.9,2481.2 -2481.2,2481.2 -1370.4,0 -2481.3,-1110.9 -2481.3,-2481.2 0,-460.4 125.5,-891.3 343.9,-1260.7 563,156.6 1310.3,252.1 2130.3,252.1"
         style="fill:#ffffff;fill-opacity:1;fill-rule:nonzero;stroke:none"
         id="path503" />
      <path
         d="m 29857.6,4142.1 h -132.9 v 88.6 h 361.9 v -88.6 h -132.9 v -348.2 h -96.1 v 348.2"
         style="fill:#ffffff;fill-opacity:1;fill-rule:nonzero;stroke:none"
         id="path505" />
      <path
         d="m 30353.7,4018.6 c 46.8,0 73.6,24.9 73.6,61.7 v 1.3 c 0,41.2 -28.7,62.4 -75.5,62.4 h -95.4 v -125.4 z m -193.4,212.1 h 199.6 c 55.6,0 98.6,-15.6 127.3,-44.3 24.4,-24.3 37.5,-58.6 37.5,-99.8 v -1.3 c 0,-70.5 -38.1,-114.8 -93.6,-135.4 l 106.7,-156 h -112.3 l -93.6,139.8 h -75.5 v -139.8 h -96.1 v 436.8"
         style="fill:#ffffff;fill-opacity:1;fill-rule:nonzero;stroke:none"
         id="path507" />
      <path
         d="m 30862.3,3976.8 -58.1,141.6 -58,-141.6 z m -101.1,257 h 88.6 l 187.2,-439.9 h -100.5 l -39.9,98 h -184.7 l -39.9,-98 h -98 l 187.2,439.9"
         style="fill:#ffffff;fill-opacity:1;fill-rule:nonzero;stroke:none"
         id="path509" />
      <path
         d="m 31104.4,4230.7 h 88.6 l 204.6,-268.9 v 268.9 h 94.9 v -436.8 h -81.8 l -211.5,277.7 v -277.7 h -94.8 v 436.8"
         style="fill:#ffffff;fill-opacity:1;fill-rule:nonzero;stroke:none"
         id="path511" />
      <path
         d="m 31567.4,3857.6 56.8,68 c 39.3,-32.5 80.5,-53 130.4,-53 39.3,0 63,15.6 63,41.1 v 1.3 c 0,24.3 -15,36.8 -88,55.5 -88,22.5 -144.7,46.8 -144.7,133.5 v 1.3 c 0,79.2 63.6,131.6 152.8,131.6 63.7,0 117.9,-19.9 162.3,-55.5 l -50,-72.4 c -38.7,26.9 -76.7,43.1 -113.5,43.1 -36.8,0 -56.2,-16.9 -56.2,-38.1 v -1.2 c 0,-28.7 18.7,-38.1 94.2,-57.4 88.6,-23.1 138.5,-54.9 138.5,-131.1 v -1.2 c 0,-86.7 -66.1,-135.4 -160.3,-135.4 -66.1,0 -132.9,23.1 -185.3,69.9"
         style="fill:#ffffff;fill-opacity:1;fill-rule:nonzero;stroke:none"
         id="path513" />
      <path
         d="m 32183.9,4230.7 h 332.5 v -87.4 H 32280 v -92.9 h 208.4 V 3963 H 32280 v -169.1 h -96.1 v 436.8"
         style="fill:#ffffff;fill-opacity:1;fill-rule:nonzero;stroke:none"
         id="path515" />
      <path
         d="m 32794.1,3976.8 -58,141.6 -58,-141.6 z m -101,257 h 88.6 l 187.1,-439.9 h -100.4 l -39.9,98 h -184.7 l -40,-98 h -97.9 l 187.2,439.9"
         style="fill:#ffffff;fill-opacity:1;fill-rule:nonzero;stroke:none"
         id="path517" />
      <path
         d="m 33081.8,4142.1 h -132.9 v 88.6 h 361.9 v -88.6 h -132.9 v -348.2 h -96.1 v 348.2"
         style="fill:#ffffff;fill-opacity:1;fill-rule:nonzero;stroke:none"
         id="path519" />
      <path
         d="m 31552.3,5095.3 c -463.7,0 -840.9,377.2 -840.9,840.9 0,174.7 65.7,323.7 136.8,458.7 160.1,304.2 586,1192.9 590.3,1201.8 l 113.8,237.5 113.7,-237.5 c 4.3,-8.9 431,-899.3 590.3,-1201.8 71.1,-134.9 136.8,-284 136.8,-458.7 0,-463.7 -377.2,-840.9 -840.8,-840.9"
         style="fill:#2f3031;fill-opacity:1;fill-rule:nonzero;stroke:none"
         id="path521" />
      <path
         d="m 32144.7,6336.2 c -162.2,308.1 -592.4,1206 -592.4,1206 0,0 -429.4,-896.3 -592.5,-1206.1 -64.2,-121.9 -122.3,-251.7 -122.3,-399.9 0,-394.7 320,-714.7 714.8,-714.7 394.7,0 714.7,320 714.7,714.7 0,148.2 -58.1,278 -122.3,400"
         style="fill:#f8b30a;fill-opacity:1;fill-rule:nonzero;stroke:none"
         id="path523" />
      <path
         d="m 31552.3,5468.7 c -275.1,0 -498.1,222.9 -498.1,498"
         style="fill:#f8b30a;fill-opacity:1;stroke:#2f3031;stroke-width:69.8843;stroke-linecap:round;stroke-linejoin:miter;stroke-miterlimit:10;stroke-dasharray:none;stroke-opacity:1"
         id="path525" />
      <path
         d="m 26624.2,5748.7 c 0,-1592.9 -1291.3,-2884.2 -2884.2,-2884.2 -1593,0 -2884.3,1291.3 -2884.3,2884.2 0,1593 1291.3,2884.3 2884.3,2884.3 1592.9,0 2884.2,-1291.3 2884.2,-2884.3"
         style="fill:#f8b30a;fill-opacity:1;fill-rule:nonzero;stroke:none"
         id="path527"
         inkscape:export-filename="../../Documents/GitHub/pucciaria1.0/img/allergeni/celery.svg"
         inkscape:export-xdpi="11.982214"
         inkscape:export-ydpi="11.982214" />
      <path
         d="m 21609.6,4476.2 c 565.8,160.9 1323.2,259.4 2155.6,259.4 811.4,0 1551.4,-93.5 2112.3,-247.2 218.3,369.4 343.7,800.2 343.7,1260.3 0,1370.4 -1110.9,2481.3 -2481.2,2481.3 -1370.4,0 -2481.3,-1110.9 -2481.3,-2481.3 0,-465.2 128.1,-900.4 350.8,-1272.5 h 0.1"
         style="fill:#ffffff;fill-opacity:1;fill-rule:nonzero;stroke:none"
         id="path529" />
      <path
         d="m 22503.4,4017.6 v 1.2 c 0,124.2 93.6,225.9 227.8,225.9 82.3,0 131.6,-27.5 172.1,-67.4 l -61.1,-70.5 c -33.7,30.6 -68,49.3 -111.7,49.3 -73.6,0 -126.6,-61.2 -126.6,-136 v -1.3 c 0,-74.8 51.8,-137.2 126.6,-137.2 49.9,0 80.5,19.9 114.8,51.1 l 61.2,-61.7 c -44.9,-48.1 -94.9,-78 -179.1,-78 -128.5,0 -224,99.2 -224,224.6"
         style="fill:#ffffff;fill-opacity:1;fill-rule:nonzero;stroke:none"
         id="path531" />
      <path
         d="m 22983.3,4237.2 h 329.4 v -85.5 h -234 v -88.6 h 205.9 v -85.5 h -205.9 v -91.7 h 237.1 v -85.5 h -332.5 v 436.8"
         style="fill:#ffffff;fill-opacity:1;fill-rule:nonzero;stroke:none"
         id="path533" />
      <path
         d="m 23401.3,4237.2 h 96.1 v -349.4 h 217.8 v -87.4 h -313.9 v 436.8"
         style="fill:#ffffff;fill-opacity:1;fill-rule:nonzero;stroke:none"
         id="path535" />
      <path
         d="m 23787.6,4237.2 h 329.4 v -85.5 h -234 v -88.6 h 205.9 v -85.5 H 23883 v -91.7 h 237.1 v -85.5 h -332.5 v 436.8"
         style="fill:#ffffff;fill-opacity:1;fill-rule:nonzero;stroke:none"
         id="path537" />
      <path
         d="m 24399.1,4025.1 c 46.8,0 73.6,24.9 73.6,61.7 v 1.3 c 0,41.2 -28.7,62.4 -75.5,62.4 h -95.5 v -125.4 z m -193.4,212.1 h 199.6 c 55.5,0 98.6,-15.6 127.3,-44.3 24.3,-24.3 37.4,-58.6 37.4,-99.8 v -1.3 c 0,-70.5 -38,-114.8 -93.6,-135.4 l 106.7,-156 h -112.3 l -93.6,139.8 h -75.5 v -139.8 h -96 v 436.8"
         style="fill:#ffffff;fill-opacity:1;fill-rule:nonzero;stroke:none"
         id="path539" />
      <path
         d="m 24764.1,3972.7 -167.8,264.5 h 112.3 l 104.2,-175.3 106.1,175.3 h 109.2 l -167.9,-262.7 v -174.1 h -96.1 v 172.3"
         style="fill:#ffffff;fill-opacity:1;fill-rule:nonzero;stroke:none"
         id="path541" />
      <path
         d="m 24388.2,6647.8 c 98.1,92.8 114.7,161.1 159.2,291.5 -90.6,33.3 -162,45.4 -256,24.6 l -14.3,77.6 c -175.4,-44.4 -181.7,-136.3 -259,-312.6 -11.1,-25.4 -56.6,-17.8 -55.2,9.2 1.7,28.6 9.7,57.4 21.7,83.9 26.2,58.4 69.2,110.2 101,166.6 81.2,144.3 83.7,318.6 6.5,465.6 l -53.4,-26.4 c -22.8,71.3 -46.3,139 -121.4,208.8 -4.8,-6.4 -19.2,-26.6 -24.1,-33 -24,71.8 -56.3,128.7 -98.6,188.8 -44.7,-58.3 -79.5,-113.7 -106.4,-184.5 -4.7,6.6 -18.1,27.5 -22.7,34.1 -78,-66.6 -104.4,-133.3 -130.1,-203.6 l -52.3,28.6 c -83.4,-143.5 -88.3,-317.7 -13.2,-465.4 29.3,-57.7 70,-111.3 93.8,-170.6 10.9,-27.1 17.7,-56.2 18,-84.8 0.4,-27.1 -45.4,-32.7 -55.5,-6.9 -69.7,179.4 -72,271.5 -245.4,323.3 l -17.6,-76.9 c -93.1,24.8 -164.9,15.8 -256.9,-13.8 38.9,-132.1 52.7,-201.1 146.8,-297.9 -9,-12.6 -44.5,-23.6 -59.3,-20.8 76.6,-198 278.5,-302.7 440.4,-356.5 L 23438,5119.6 c 0,0 77.7,-119 338.9,-119 207.7,0 338.8,116.8 338.8,116.8 l -95.3,1178.3 c 158.6,49.7 346.1,145.6 426.2,328.9 -14.9,-2.2 -49.9,10.3 -58.4,23.2"
         style="fill:#f8b30a;fill-opacity:1;fill-rule:nonzero;stroke:none"
         id="path543" />
    </g>
  </g>
</svg>
